<svg width="73" height="83" viewBox="0 0 73 83" fill="none" xmlns="http://www.w3.org/2000/svg">
<path d="M64.1487 32.5471C63.523 31.8801 62.6887 31.5581 61.8312 31.5581C61.0432 31.5581 60.3016 31.8111 59.6758 32.3861L39.6519 50.6263L39.6519 3.12821C39.6519 1.40309 38.2382 1.47511e-06 36.5 1.32315e-06C34.7618 1.17119e-06 33.3481 1.40309 33.3481 3.12821L33.3481 50.8103L13.3242 32.3631C12.0727 31.167 10.0564 31.259 8.85127 32.5241C7.64613 33.7662 7.73883 35.7673 9.01349 36.9634L34.2519 60.1259C34.5764 60.448 34.9936 60.655 35.4107 60.793C35.7815 60.908 36.1524 61 36.5232 61C37.6356 61 38.5626 60.425 39.142 59.5969L63.9865 36.9864C65.2612 35.7903 65.3539 33.8122 64.1487 32.5471Z" fill="#DDDDDD"/>
<path d="M3.10638 49C1.3933 49 0 50.3864 0 52.0909V79.9091C0 81.6136 1.3933 83 3.10638 83H69.8936C71.6067 83 73 81.6136 73 79.9091V52.0909C73 50.3864 71.6067 49 69.8936 49C68.1805 49 66.7872 50.3864 66.7872 52.0909V76.8182H6.21277V52.0909C6.21277 50.4091 4.81946 49 3.10638 49Z" fill="#DBDBDB"/>
</svg>
