
<svg width="232" height="92" viewBox="0 0 239 92" fill="none" xmlns="http://www.w3.org/2000/svg">
    <path d="M121.325 45.0139V49.9189H97.6998V18.4189H120.695V23.3239H103.55V31.5139H118.76V36.3289H103.55V45.0139H121.325ZM127.012 35.0689H139.387V39.7489H127.012V35.0689ZM162.682 50.3689C159.502 50.3689 156.622 49.6789 154.042 48.2989C151.492 46.8889 149.482 44.9539 148.012 42.4939C146.572 40.0339 145.852 37.2589 145.852 34.1689C145.852 31.0789 146.587 28.3039 148.057 25.8439C149.527 23.3839 151.537 21.4639 154.087 20.0839C156.667 18.6739 159.547 17.9689 162.727 17.9689C165.307 17.9689 167.662 18.4189 169.792 19.3189C171.922 20.2189 173.722 21.5239 175.192 23.2339L171.412 26.7889C169.132 24.3289 166.327 23.0989 162.997 23.0989C160.837 23.0989 158.902 23.5789 157.192 24.5389C155.482 25.4689 154.147 26.7739 153.187 28.4539C152.227 30.1339 151.747 32.0389 151.747 34.1689C151.747 36.2989 152.227 38.2039 153.187 39.8839C154.147 41.5639 155.482 42.8839 157.192 43.8439C158.902 44.7739 160.837 45.2389 162.997 45.2389C166.327 45.2389 169.132 43.9939 171.412 41.5039L175.192 45.1039C173.722 46.8139 171.907 48.1189 169.747 49.0189C167.617 49.9189 165.262 50.3689 162.682 50.3689ZM203.768 38.0389C203.768 38.4289 203.738 38.9839 203.678 39.7039H184.823C185.153 41.4739 186.008 42.8839 187.388 43.9339C188.798 44.9539 190.538 45.4639 192.608 45.4639C195.248 45.4639 197.423 44.5939 199.133 42.8539L202.148 46.3189C201.068 47.6089 199.703 48.5839 198.053 49.2439C196.403 49.9039 194.543 50.2339 192.473 50.2339C189.833 50.2339 187.508 49.7089 185.498 48.6589C183.488 47.6089 181.928 46.1539 180.818 44.2939C179.738 42.4039 179.198 40.2739 179.198 37.9039C179.198 35.5639 179.723 33.4639 180.773 31.6039C181.853 29.7139 183.338 28.2439 185.228 27.1939C187.118 26.1439 189.248 25.6189 191.618 25.6189C193.958 25.6189 196.043 26.1439 197.873 27.1939C199.733 28.2139 201.173 29.6689 202.193 31.5589C203.243 33.4189 203.768 35.5789 203.768 38.0389ZM191.618 30.1189C189.818 30.1189 188.288 30.6589 187.028 31.7389C185.798 32.7889 185.048 34.1989 184.778 35.9689H198.413C198.173 34.2289 197.438 32.8189 196.208 31.7389C194.978 30.6589 193.448 30.1189 191.618 30.1189ZM210.971 16.5289H216.596V49.9189H210.971V16.5289ZM225.779 16.5289H231.404V49.9189H225.779V16.5289Z" fill="white" />
    <path d="M99.4383 66.2994H101.778V78.8994H99.4383V66.2994ZM105.906 66.2994H108.246V78.8994H105.906V66.2994ZM114.93 68.2794H110.754V66.2994H121.446V68.2794H117.27V78.8994H114.93V68.2794ZM137.861 78.8994L135.287 75.2094C135.179 75.2214 135.017 75.2274 134.801 75.2274H131.957V78.8994H129.617V66.2994H134.801C135.893 66.2994 136.841 66.4794 137.645 66.8394C138.461 67.1994 139.085 67.7154 139.517 68.3874C139.949 69.0594 140.165 69.8574 140.165 70.7814C140.165 71.7294 139.931 72.5454 139.463 73.2294C139.007 73.9134 138.347 74.4234 137.483 74.7594L140.381 78.8994H137.861ZM137.807 70.7814C137.807 69.9774 137.543 69.3594 137.015 68.9274C136.487 68.4954 135.713 68.2794 134.693 68.2794H131.957V73.3014H134.693C135.713 73.3014 136.487 73.0854 137.015 72.6534C137.543 72.2094 137.807 71.5854 137.807 70.7814ZM149.389 79.0794C148.105 79.0794 146.947 78.8034 145.915 78.2514C144.883 77.6874 144.073 76.9134 143.485 75.9294C142.897 74.9334 142.603 73.8234 142.603 72.5994C142.603 71.3754 142.897 70.2714 143.485 69.2874C144.073 68.2914 144.883 67.5174 145.915 66.9654C146.947 66.4014 148.105 66.1194 149.389 66.1194C150.673 66.1194 151.831 66.4014 152.863 66.9654C153.895 67.5174 154.705 68.2854 155.293 69.2694C155.881 70.2534 156.175 71.3634 156.175 72.5994C156.175 73.8354 155.881 74.9454 155.293 75.9294C154.705 76.9134 153.895 77.6874 152.863 78.2514C151.831 78.8034 150.673 79.0794 149.389 79.0794ZM149.389 77.0274C150.229 77.0274 150.985 76.8414 151.657 76.4694C152.329 76.0854 152.857 75.5574 153.241 74.8854C153.625 74.2014 153.817 73.4394 153.817 72.5994C153.817 71.7594 153.625 71.0034 153.241 70.3314C152.857 69.6474 152.329 69.1194 151.657 68.7474C150.985 68.3634 150.229 68.1714 149.389 68.1714C148.549 68.1714 147.793 68.3634 147.121 68.7474C146.449 69.1194 145.921 69.6474 145.537 70.3314C145.153 71.0034 144.961 71.7594 144.961 72.5994C144.961 73.4394 145.153 74.2014 145.537 74.8854C145.921 75.5574 146.449 76.0854 147.121 76.4694C147.793 76.8414 148.549 77.0274 149.389 77.0274ZM165.262 79.0794C163.978 79.0794 162.82 78.8034 161.788 78.2514C160.756 77.6874 159.946 76.9134 159.358 75.9294C158.77 74.9334 158.476 73.8234 158.476 72.5994C158.476 71.3754 158.77 70.2714 159.358 69.2874C159.946 68.2914 160.756 67.5174 161.788 66.9654C162.82 66.4014 163.978 66.1194 165.262 66.1194C166.546 66.1194 167.704 66.4014 168.736 66.9654C169.768 67.5174 170.578 68.2854 171.166 69.2694C171.754 70.2534 172.048 71.3634 172.048 72.5994C172.048 73.8354 171.754 74.9454 171.166 75.9294C170.578 76.9134 169.768 77.6874 168.736 78.2514C167.704 78.8034 166.546 79.0794 165.262 79.0794ZM165.262 77.0274C166.102 77.0274 166.858 76.8414 167.53 76.4694C168.202 76.0854 168.73 75.5574 169.114 74.8854C169.498 74.2014 169.69 73.4394 169.69 72.5994C169.69 71.7594 169.498 71.0034 169.114 70.3314C168.73 69.6474 168.202 69.1194 167.53 68.7474C166.858 68.3634 166.102 68.1714 165.262 68.1714C164.422 68.1714 163.666 68.3634 162.994 68.7474C162.322 69.1194 161.794 69.6474 161.41 70.3314C161.026 71.0034 160.834 71.7594 160.834 72.5994C160.834 73.4394 161.026 74.2014 161.41 74.8854C161.794 75.5574 162.322 76.0854 162.994 76.4694C163.666 76.8414 164.422 77.0274 165.262 77.0274ZM183.492 78.8994L180.918 75.2094C180.81 75.2214 180.648 75.2274 180.432 75.2274H177.588V78.8994H175.248V66.2994H180.432C181.524 66.2994 182.472 66.4794 183.276 66.8394C184.092 67.1994 184.716 67.7154 185.148 68.3874C185.58 69.0594 185.796 69.8574 185.796 70.7814C185.796 71.7294 185.562 72.5454 185.094 73.2294C184.638 73.9134 183.978 74.4234 183.114 74.7594L186.012 78.8994H183.492ZM183.438 70.7814C183.438 69.9774 183.174 69.3594 182.646 68.9274C182.118 68.4954 181.344 68.2794 180.324 68.2794H177.588V73.3014H180.324C181.344 73.3014 182.118 73.0854 182.646 72.6534C183.174 72.2094 183.438 71.5854 183.438 70.7814ZM193.472 73.6254L191.474 75.6774V78.8994H189.134V66.2994H191.474V72.7614L197.702 66.2994H200.33L195.038 71.9334L200.654 78.8994H197.918L193.472 73.6254ZM212.417 76.9374V78.8994H202.967V66.2994H212.165V68.2614H205.307V71.5374H211.391V73.4634H205.307V76.9374H212.417ZM225.196 76.9374V78.8994H215.746V66.2994H224.944V68.2614H218.086V71.5374H224.17V73.4634H218.086V76.9374H225.196Z" fill="white" />
    <g clip-path="url(#clip0)">
        <path d="M64.8501 39.4035C65.8839 45.5238 65.429 50.8584 61.2523 55.6968C56.4553 61.2381 48.9703 69.2194 44.0906 74.7194C41.5267 70.0051 40.0793 67.9788 36.1094 63.2231C44.959 53.2569 54.1809 42.7531 63.1546 32.8696C63.9403 34.9787 64.4779 37.1704 64.8501 39.4035Z" fill="#138AD6" />
        <path d="M50.6246 91.6329C48.4329 83.2795 46.3652 79.599 46.3652 79.599C47.4404 78.6065 53.7262 71.2456 55.9593 68.5576C57.9029 78.193 55.0081 86.2156 50.6246 91.6329Z" fill="#138AD6" />
        <path d="M65.6767 3.05374C67 10.7041 67.1654 19.3884 61.9549 25.7155C55.3796 33.7381 48.2255 41.3885 41.2781 49.1216C39.6653 50.8998 38.0525 52.678 36.4397 54.4562C35.8194 55.1592 32.3044 59.2945 32.3044 59.2945C20.8081 48.1704 7.82308 44.7381 6.16894 44.3246C3.19148 43.5802 1.20652 44.3246 0.91704 44.5727C0.503505 44.1178 2.69524 41.6366 2.90201 41.1403C3.52231 39.6103 3.56367 37.9561 4.47344 36.4674C6.293 33.4486 9.80805 32.5802 13.1577 32.911C17.0449 33.2832 23.2893 35.3095 28.5412 34.1929C36.233 32.5802 41.8157 26.2117 47.9774 19.8846C53.9323 13.723 59.4323 7.14774 65.1804 0.779297C65.3872 1.52366 65.5526 2.30938 65.6767 3.05374Z" fill="#138AD6" />
    </g>
    <defs>
        <clipPath id="clip0">
            <rect width="65.5453" height="90.8537" fill="white" transform="translate(0.917969 0.779297)" />
        </clipPath>
    </defs>
</svg>
