<svg width="33" height="32" viewBox="0 0 33 32" fill="none" xmlns="http://www.w3.org/2000/svg">
<g clip-path="url(#clip0)">
<path fill-rule="evenodd" clip-rule="evenodd" d="M16.5781 0C7.70313 0 0.578125 7.125 0.578125 16C0.578125 24.875 7.70313 32 16.5781 32C25.4531 32 32.5781 24.875 32.5781 16C32.5781 7.125 25.4531 0 16.5781 0ZM16.5781 30C8.82812 30 2.57812 23.75 2.57812 16C2.57812 8.25 8.82812 2 16.5781 2C24.3281 2 30.5781 8.25 30.5781 16C30.5781 23.75 24.3281 30 16.5781 30ZM22.5781 15H17.5781V10C17.5781 9.5 17.0781 9 16.5781 9C16.0781 9 15.5781 9.5 15.5781 10V15H10.5781C10.0781 15 9.57812 15.5 9.57812 16C9.57812 16.5 10.0781 17 10.5781 17H15.5781V22C15.5781 22.5 16.0781 23 16.5781 23C17.0781 23 17.5781 22.5 17.5781 22V17H22.5781C23.0781 17 23.5781 16.5 23.5781 16C23.5781 15.5 23.0781 15 22.5781 15Z" fill="#4F4F4F"/>
</g>
<defs>
<clipPath id="clip0">
<rect width="32" height="32" fill="white" transform="translate(0.578125)"/>
</clipPath>
</defs>
</svg>
