<?xml version="1.0" encoding="UTF-8"?>
<svg xmlns="http://www.w3.org/2000/svg" xmlns:xlink="http://www.w3.org/1999/xlink" width="108pt" height="78pt" viewBox="0 0 108 78" version="1.1">
<g id="surface1">
<path style=" stroke:none;fill-rule:nonzero;fill:rgb(81.960784%,63.137255%,80%);fill-opacity:1;" d="M 54.054688 47.523438 C 49.355469 47.523438 45.257812 44.429688 43.890625 39.960938 C 38.253906 38.242188 35.179688 32.226562 36.890625 26.640625 C 37.914062 23.289062 40.5625 20.625 43.890625 19.59375 C 45.597656 13.921875 51.578125 10.828125 57.128906 12.546875 C 60.457031 13.578125 63.101562 16.242188 64.128906 19.59375 C 69.765625 21.3125 72.839844 27.328125 71.132812 32.914062 C 70.105469 36.265625 67.460938 38.929688 64.128906 39.960938 C 62.847656 44.429688 58.75 47.523438 54.054688 47.523438 Z M 45.085938 19.25 C 48.332031 18.648438 51.664062 19.507812 54.136719 21.742188 C 56.617188 19.59375 59.945312 18.648438 63.101562 19.25 C 61.226562 14.265625 55.675781 11.6875 50.722656 13.578125 C 48.074219 14.609375 46.027344 16.671875 45.085938 19.25 Z M 54.054688 33.34375 C 53.367188 33.34375 52.6875 33.257812 52.089844 33.171875 C 52.515625 34.375 53.199219 35.492188 54.054688 36.351562 C 54.90625 35.40625 55.589844 34.375 56.015625 33.171875 C 55.417969 33.34375 54.738281 33.34375 54.054688 33.34375 Z M 50.976562 32.914062 C 49.445312 32.398438 47.992188 31.625 46.792969 30.507812 C 45.257812 32.226562 44.402344 34.546875 44.402344 36.867188 C 44.402344 37.640625 44.492188 38.414062 44.660156 39.1875 C 47.734375 39.960938 50.894531 39.1875 53.285156 37.125 C 52.257812 35.921875 51.40625 34.460938 50.976562 32.914062 Z M 46.113281 29.734375 C 43.976562 27.242188 43.035156 23.890625 43.632812 20.625 C 38.683594 22.515625 36.121094 28.101562 38 33.085938 C 38.941406 35.664062 40.988281 37.726562 43.632812 38.757812 C 43.035156 35.578125 43.976562 32.226562 46.113281 29.734375 Z M 64.558594 20.710938 C 65.152344 23.976562 64.300781 27.328125 62.078125 29.820312 C 64.214844 32.3125 65.152344 35.664062 64.558594 38.929688 C 69.511719 37.039062 72.070312 31.453125 70.191406 26.382812 C 69.167969 23.71875 67.121094 21.65625 64.558594 20.710938 Z M 61.398438 30.507812 C 60.199219 31.625 58.835938 32.484375 57.210938 32.914062 C 56.699219 34.460938 55.929688 35.921875 54.820312 37.125 C 57.210938 39.1875 60.371094 39.960938 63.449219 39.1875 C 64.214844 36.09375 63.449219 32.828125 61.398438 30.507812 Z M 47.476562 29.734375 C 48.417969 30.59375 49.527344 31.28125 50.636719 31.710938 C 50.382812 30.421875 50.382812 29.046875 50.636719 27.671875 C 49.527344 28.1875 48.417969 28.875 47.476562 29.734375 Z M 51.746094 32.140625 C 53.285156 32.484375 54.90625 32.484375 56.445312 32.140625 C 56.785156 30.59375 56.785156 28.960938 56.445312 27.414062 C 54.90625 27.070312 53.285156 27.070312 51.746094 27.414062 C 51.40625 28.960938 51.40625 30.59375 51.746094 32.140625 Z M 57.46875 31.796875 C 58.664062 31.367188 59.777344 30.679688 60.628906 29.820312 C 59.6875 28.960938 58.664062 28.273438 57.46875 27.84375 C 57.726562 29.046875 57.726562 30.421875 57.46875 31.796875 Z M 61.398438 29.046875 C 63.449219 26.640625 64.214844 23.375 63.449219 20.367188 C 62.679688 20.195312 61.910156 20.109375 61.140625 20.109375 C 58.835938 20.109375 56.617188 20.96875 54.820312 22.515625 C 55.929688 23.71875 56.785156 25.09375 57.210938 26.726562 C 58.75 27.070312 60.199219 27.929688 61.398438 29.046875 Z M 44.746094 20.367188 C 44.574219 21.140625 44.492188 21.914062 44.492188 22.6875 C 44.492188 25.007812 45.34375 27.242188 46.882812 29.046875 C 48.074219 27.929688 49.445312 27.070312 51.066406 26.640625 C 51.578125 25.09375 52.347656 23.632812 53.457031 22.429688 C 51.746094 20.882812 49.445312 20.023438 47.136719 20.023438 C 46.285156 20.109375 45.515625 20.195312 44.746094 20.367188 Z M 63.101562 40.21875 C 59.859375 40.820312 56.527344 39.960938 54.054688 37.726562 C 51.578125 39.875 48.246094 40.820312 45.003906 40.21875 C 46.882812 45.203125 52.429688 47.78125 57.46875 45.804688 C 60.117188 44.859375 62.167969 42.882812 63.101562 40.21875 Z M 54.054688 23.117188 C 53.199219 24.0625 52.515625 25.179688 52.089844 26.296875 C 53.367188 26.039062 54.738281 26.039062 56.101562 26.296875 C 55.675781 25.179688 54.996094 24.0625 54.054688 23.117188 Z M 54.054688 23.117188 "/>
<path style=" stroke:none;fill-rule:nonzero;fill:rgb(63.921569%,13.72549%,55.686275%);fill-opacity:1;" d="M 51.746094 32.140625 C 53.285156 32.484375 54.90625 32.484375 56.445312 32.140625 C 56.785156 30.59375 56.785156 28.960938 56.445312 27.414062 C 54.90625 27.070312 53.285156 27.070312 51.746094 27.414062 C 51.40625 28.960938 51.40625 30.59375 51.746094 32.140625 Z M 51.746094 32.140625 "/>
<path style=" stroke:none;fill-rule:nonzero;fill:rgb(63.921569%,13.72549%,55.686275%);fill-opacity:1;" d="M 8.539062 66.105469 L 20.578125 66.105469 L 20.578125 62.929688 L 13.746094 62.929688 L 20.578125 55.191406 L 20.578125 52.445312 L 8.792969 52.445312 L 8.792969 55.625 L 15.371094 55.625 L 8.539062 63.359375 Z M 8.539062 66.105469 "/>
<path style=" stroke:none;fill-rule:nonzero;fill:rgb(63.921569%,13.72549%,55.686275%);fill-opacity:1;" d="M 21.777344 66.105469 L 32.789062 66.105469 L 32.789062 62.929688 L 25.53125 62.929688 L 25.53125 60.777344 L 32.019531 60.777344 L 32.019531 57.773438 L 25.53125 57.773438 L 25.53125 55.707031 L 32.703125 55.707031 L 32.703125 52.445312 L 21.777344 52.445312 Z M 21.777344 66.105469 "/>
<path style=" stroke:none;fill-rule:nonzero;fill:rgb(63.921569%,13.72549%,55.686275%);fill-opacity:1;" d="M 34.070312 66.105469 L 37.828125 66.105469 L 37.828125 58.632812 L 43.632812 66.105469 L 46.964844 66.105469 L 46.964844 52.445312 L 43.207031 52.445312 L 43.207031 59.664062 L 37.570312 52.445312 L 34.070312 52.445312 Z M 34.070312 66.105469 "/>
<path style=" stroke:none;fill-rule:nonzero;fill:rgb(63.921569%,13.72549%,55.686275%);fill-opacity:1;" d="M 48.074219 66.105469 L 51.835938 66.105469 L 51.835938 61.210938 L 58.238281 61.210938 L 58.238281 58.117188 L 51.835938 58.117188 L 51.835938 55.796875 L 58.917969 55.796875 L 58.917969 52.445312 L 48.074219 52.445312 Z M 48.074219 66.105469 "/>
<path style=" stroke:none;fill-rule:nonzero;fill:rgb(63.921569%,13.72549%,55.686275%);fill-opacity:1;" d="M 66.777344 66.363281 C 70.703125 66.453125 73.949219 63.359375 74.121094 59.40625 C 74.121094 59.320312 74.121094 59.320312 74.121094 59.230469 C 73.949219 55.191406 70.535156 52.015625 66.519531 52.1875 C 62.679688 52.359375 59.601562 55.449219 59.519531 59.320312 C 59.519531 63.273438 62.679688 66.363281 66.605469 66.363281 C 66.691406 66.363281 66.691406 66.363281 66.777344 66.363281 Z M 66.863281 63.015625 C 64.898438 63.015625 63.359375 61.382812 63.359375 59.40625 C 63.359375 59.40625 63.359375 59.320312 63.359375 59.320312 C 63.277344 57.34375 64.726562 55.707031 66.691406 55.625 C 66.777344 55.625 66.777344 55.625 66.863281 55.625 C 68.824219 55.625 70.363281 57.257812 70.363281 59.230469 C 70.363281 59.230469 70.363281 59.320312 70.363281 59.320312 C 70.449219 61.210938 68.996094 62.84375 67.03125 62.929688 C 66.949219 63.015625 66.863281 63.015625 66.863281 63.015625 Z M 66.863281 63.015625 "/>
<path style=" stroke:none;fill-rule:nonzero;fill:rgb(63.921569%,13.72549%,55.686275%);fill-opacity:1;" d="M 75.144531 66.105469 L 85.476562 66.105469 L 85.476562 62.757812 L 78.902344 62.757812 L 78.902344 52.445312 L 75.144531 52.445312 Z M 75.144531 66.105469 "/>
<path style=" stroke:none;fill-rule:nonzero;fill:rgb(63.921569%,13.72549%,55.686275%);fill-opacity:1;" d="M 86.757812 66.105469 L 91.878906 66.105469 C 96.75 66.105469 99.652344 63.1875 99.652344 59.230469 C 99.652344 55.28125 96.832031 52.445312 91.96875 52.445312 L 86.757812 52.445312 Z M 90.515625 62.757812 L 90.515625 55.796875 L 92.050781 55.796875 C 94.273438 55.796875 95.808594 57.085938 95.808594 59.230469 C 95.808594 61.46875 94.273438 62.671875 92.050781 62.671875 Z M 90.515625 62.757812 "/>
</g>
</svg>
