<svg width="395" height="32" viewBox="0 0 395 32" fill="none" xmlns="http://www.w3.org/2000/svg">
<path d="M20.1 0.699951H11.4L0 31.6H7.9L9.8 25.9L11.7 20.2L15.6 8.79995L19.5 20.2L21.4 25.9L23.3 31.6H31.3L20.1 0.699951Z" fill="white"/>
<path d="M58.4 18.3C57.3 16.9 55.8 16 53.9 15.6C55.5 15.2 56.8 14.4 57.8 13.2C58.8 11.9 59.3 10.4 59.3 8.5C59.3 5.9 58.4 4 56.7 2.6C55 1.2 52.5 0.5 49.4 0.5H35.2V31.6H49.7C53 31.6 55.6 30.8 57.3 29.4C59.1 27.9 60 25.8 60 23.1C60 21.3 59.5 19.7 58.4 18.3ZM42.8 6.5H47.6C50.3 6.5 51.6 7.6 51.6 9.8C51.6 12 50.3 13.1 47.7 13.1H42.8V6.5ZM48.1 25.5H42.7V18.5H48C49.3 18.5 50.4 18.8 51.1 19.4C51.8 20 52.2 20.9 52.2 22C52.3 24.3 50.9 25.5 48.1 25.5Z" fill="white"/>
<path d="M87.7 16.2C87.7 18.8 86.9 20.9 85.5 22.5C84 24.1 82.1 24.9 79.7 24.9C77.2 24.9 75.3 24.1 73.8 22.5C72.4 20.9 71.6 18.7 71.6 16C71.6 13.2 72.3 11.1 73.8 9.5C75.2 7.8 77.2 7 79.6 7V0C76.7 0 74 0.7 71.6 2C69.2 3.4 67.3 5.3 65.9 7.7C64.5 10.1 63.8 12.9 63.8 15.9C63.8 18.9 64.5 21.7 65.9 24.1C67.3 26.5 69.2 28.4 71.6 29.8C74 31.2 76.6 31.8 79.6 31.8C82.5 31.8 85.1 31.1 87.5 29.8C89.9 28.4 91.8 26.5 93.2 24.1C94.6 21.7 95.3 19.1 95.3 16.1H87.7V16.2Z" fill="white"/>
<path d="M118.6 0.5V18.5C118.6 20.6 118.1 22.1 117.2 23.2C116.3 24.3 114.9 24.8 113.2 24.8C111.4 24.8 110.1 24.3 109.2 23.2C108.3 22.1 107.8 20.6 107.8 18.5V0.5H100.3V18.5C100.3 21.4 100.8 23.9 101.9 25.9C103 27.9 104.5 29.4 106.4 30.4C108.3 31.4 110.5 31.9 113 31.9C115.5 31.9 117.7 31.4 119.7 30.4C121.7 29.4 123.2 27.9 124.4 25.9C125.6 23.9 126.1 21.4 126.1 18.5V0.5H118.6Z" fill="white"/>
<path d="M130 0.5V6.5H138.4V31.6H146V6.5H154.4V0.5H130Z" fill="white"/>
<path d="M175.6 6.5H187.4V0.5H168V31.6H187.4V25.6H175.6V6.5Z" fill="white"/>
<path d="M190.3 13V19.3H209.7V13H190.3Z" fill="white"/>
<path d="M238.3 17.9C237.4 16.6 236.3 15.7 235 15C233.7 14.3 232.1 13.7 230.1 13C228.7 12.5 227.7 12.1 226.9 11.8C226.2 11.5 225.6 11.1 225.1 10.5C224.6 10 224.4 9.4 224.4 8.6C224.4 7.7 224.7 7 225.2 6.5C225.7 6 226.5 5.8 227.3 5.8C228.3 5.8 229.1 6.1 229.7 6.7C230.3 7.3 230.7 8.1 230.8 9.1H238.9C238.6 6.2 237.5 4 235.4 2.3C233.3 0.6 230.9 0 227.4 0C225.3 0 223.4 0.4 221.7 1.1C220 1.8 218.7 2.9 217.8 4.2C216.9 5.5 216.4 7.2 216.4 9C216.4 11 216.9 12.6 217.7 13.9C218.6 15.1 219.7 16.1 220.9 16.7C222.2 17.3 223.8 18 225.7 18.7C227.1 19.2 228.1 19.6 228.9 19.9C229.7 20.2 230.3 20.7 230.8 21.2C231.3 21.7 231.6 22.4 231.6 23.2C231.6 24.1 231.3 24.8 230.8 25.3C230.2 25.8 229.5 26.1 228.5 26.1C227.4 26.1 226.5 25.8 225.7 25.1C225 24.4 224.6 23.5 224.4 22.3H216.4C216.6 25.3 217.8 27.7 220.1 29.4C222.4 31.1 225.2 31.9 228.7 31.9C231 31.9 233 31.5 234.6 30.7C236.2 29.9 237.5 28.8 238.3 27.4C239.1 26 239.6 24.5 239.6 22.9C239.7 20.8 239.3 19.2 238.3 17.9Z" fill="white"/>
<path d="M262.9 16.1V18.4C262.9 20.5 262.4 22 261.5 23.1C260.6 24.2 259.2 24.7 257.5 24.7C255.8 24.7 254.4 24.2 253.5 23.1C252.6 22 252.1 20.5 252.1 18.4V0.400024H244.6V18.4C244.6 21.3 245.1 23.8 246.2 25.8C247.3 27.8 248.8 29.3 250.7 30.3C252.6 31.3 254.8 31.8 257.3 31.8C259.8 31.8 262 31.3 264 30.3C266 29.3 267.5 27.8 268.7 25.8C269.8 23.8 270.4 21.3 270.4 18.4V16.1H262.9Z" fill="white"/>
<path d="M302.1 0.699951L293.9 22.2L285.5 0.699951H276.3V31.6H283.8V12.2L290.5 31.6H297L303.7 12.3V31.6H311.2V0.699951H302.1Z" fill="white"/>
<path d="M343.2 0.699951L335 22.2L326.6 0.699951H317.4V31.6H324.9V12.2L331.6 31.6H338.1L344.8 12.3V31.6H352.3V0.699951H343.2Z" fill="white"/>
<path d="M358.4 0.5V31.6H365.9V0.5H358.4Z" fill="white"/>
<path d="M370 0.5V6.5H378.4V31.6H386V6.5H394.5V0.5H370Z" fill="white"/>
</svg>
