<svg width="152" height="80" viewBox="0 0 152 80" fill="none" xmlns="http://www.w3.org/2000/svg">
<path d="M90.8545 41.3185V44.2424H76.7714V25.465H90.4789V28.389H80.2587V33.2711H89.3255V36.1414H80.2587V41.3185H90.8545Z" fill="white"/>
<path d="M93.1616 35.3904H100.538V38.18H93.1616V35.3904Z" fill="white"/>
<path d="M103.328 34.8539C103.328 29.2474 107.62 25.1968 113.387 25.1968C116.445 25.1968 119.074 26.2966 120.818 28.3353L118.565 30.4545C117.935 29.7498 117.161 29.1887 116.295 28.8092C115.43 28.4297 114.493 28.2406 113.548 28.2548C109.659 28.2548 106.842 30.991 106.842 34.8539C106.842 38.7165 109.659 41.4528 113.548 41.4528C114.496 41.468 115.435 41.2767 116.302 40.8922C117.168 40.5077 117.94 39.9393 118.565 39.2263L120.818 41.3723C119.074 43.411 116.445 44.5108 113.361 44.5108C107.62 44.5108 103.328 40.4603 103.328 34.8539Z" fill="white"/>
<path d="M136.725 38.1533H125.485C125.887 40.2458 127.631 41.5868 130.126 41.5868C131.735 41.5868 132.996 41.0772 134.015 40.031L135.813 42.0964C134.525 43.6256 132.513 44.4303 130.045 44.4303C125.244 44.4303 122.132 41.3455 122.132 37.0803C122.132 32.8151 125.271 29.757 129.536 29.757C133.72 29.757 136.778 32.681 136.778 37.1608C136.778 37.429 136.752 37.8313 136.725 38.1533ZM125.458 35.9267H133.586C133.318 33.8612 131.735 32.4396 129.536 32.4396C127.363 32.4396 125.78 33.8345 125.458 35.9267Z" fill="white"/>
<path d="M139.997 24.3384H143.35V44.2424H139.997V24.3384Z" fill="white"/>
<path d="M147.749 24.3384H151.102V44.2424H147.749V24.3384Z" fill="white"/>
<path d="M77.0521 50.4938H77.6802V56.4358H77.0521V50.4938Z" fill="white"/>
<path d="M81.1864 50.4938H81.8146V56.4358H81.1864V50.4938Z" fill="white"/>
<path d="M86.4753 51.0371H84.387V50.4938H89.1917V51.0371H87.1034V56.4358H86.4753L86.4753 51.0371Z" fill="white"/>
<path d="M103.412 56.4358L102.053 54.5259C101.895 54.5434 101.737 54.5519 101.578 54.5516H99.9819V56.4358H99.3538V50.4938H101.578C103.089 50.4938 104.006 51.2579 104.006 52.5312C104.026 52.9507 103.903 53.3646 103.656 53.7042C103.409 54.0439 103.053 54.289 102.647 54.3988L104.099 56.4358H103.412ZM103.377 52.5312C103.377 51.5804 102.749 51.0371 101.561 51.0371H99.9819V54.0166H101.561C102.749 54.0166 103.377 53.465 103.377 52.5312Z" fill="white"/>
<path d="M106.536 53.465C106.536 51.7331 107.86 50.4428 109.66 50.4428C111.443 50.4428 112.775 51.7248 112.775 53.465C112.775 55.2052 111.443 56.4869 109.66 56.4869C107.86 56.4869 106.536 55.1965 106.536 53.465ZM112.147 53.465C112.155 53.1375 112.095 52.8118 111.973 52.508C111.85 52.2042 111.667 51.9286 111.434 51.6981C111.201 51.4676 110.924 51.2871 110.619 51.1676C110.314 51.0481 109.987 50.9921 109.66 51.0031C108.225 51.0031 107.156 52.0473 107.156 53.465C107.156 54.8824 108.225 55.9266 109.66 55.9266C109.987 55.9376 110.314 55.8816 110.619 55.7621C110.924 55.6426 111.201 55.4621 111.434 55.2317C111.667 55.0012 111.85 54.7257 111.973 54.4219C112.095 54.1181 112.155 53.7925 112.147 53.465Z" fill="white"/>
<path d="M115.229 53.465C115.229 51.7331 116.553 50.4428 118.353 50.4428C120.136 50.4428 121.468 51.7248 121.468 53.465C121.468 55.2052 120.136 56.4869 118.353 56.4869C116.553 56.4869 115.229 55.1965 115.229 53.465ZM120.84 53.465C120.848 53.1375 120.789 52.8118 120.666 52.508C120.543 52.2042 120.36 51.9286 120.127 51.6981C119.894 51.4676 119.617 51.2871 119.312 51.1676C119.007 51.0481 118.681 50.9921 118.353 51.0031C116.918 51.0031 115.849 52.0473 115.849 53.465C115.849 54.8824 116.918 55.9266 118.353 55.9266C118.681 55.9376 119.007 55.8816 119.312 55.7621C119.617 55.6426 119.894 55.4621 120.127 55.2317C120.36 55.0012 120.543 54.7257 120.666 54.4219C120.789 54.1181 120.848 53.7925 120.84 53.465Z" fill="white"/>
<path d="M128.506 56.4358L127.148 54.5259C126.99 54.5434 126.832 54.5519 126.673 54.5516H125.077V56.4358H124.449V50.4938H126.673C128.184 50.4938 129.1 51.2579 129.1 52.5312C129.121 52.9507 128.997 53.3646 128.75 53.7042C128.503 54.0439 128.148 54.289 127.742 54.3988L129.194 56.4358H128.506ZM128.472 52.5312C128.472 51.5804 127.844 51.0371 126.656 51.0371H125.077V54.0166H126.656C127.844 54.0166 128.472 53.465 128.472 52.5312Z" fill="white"/>
<path d="M133.999 53.6431L132.785 54.8741V56.4358H132.157V50.4938H132.785V54.0846L136.274 50.4938H136.996L134.424 53.1849L137.174 56.4358H136.427L133.999 53.6431Z" fill="white"/>
<path d="M143.966 55.8926V56.4358H139.764V50.4938H143.838V51.0371H140.392V53.1508H143.465V53.6854H140.392V55.8926H143.966Z" fill="white"/>
<path d="M151.216 55.8926V56.4358H147.014V50.4938H151.088V51.0371H147.642V53.1508H150.715V53.6854H147.642V55.8926H151.216Z" fill="white"/>
<path d="M36.4302 64.1555C36.4168 64.1351 36.4006 64.1134 36.3845 64.0919L36.4302 64.1555Z" fill="#138AD5"/>
<path d="M56.3067 33.997C57.2286 39.4024 56.8252 44.0833 53.155 48.3381C48.9315 53.235 42.3386 60.2343 38.0518 65.0781C35.7856 60.9406 34.5131 59.1517 31.0264 54.9474C38.8064 46.1549 46.9271 36.9108 54.8329 28.2271C55.48 30.1072 55.9729 32.0369 56.3067 33.997Z" fill="#138AD5"/>
<path d="M43.7889 80C41.8549 72.628 40.0425 69.3923 40.0425 69.3923C40.9935 68.5178 46.5387 62.0217 48.5025 59.6716C50.1954 68.1721 47.649 75.2373 43.7889 80Z" fill="#138AD5"/>
<path d="M57.0393 2.01469C58.2065 8.76973 58.3473 16.3897 53.7724 21.9604C47.9698 29.0234 41.6643 35.7805 35.5473 42.5754C34.1333 44.1455 32.7176 45.7134 31.3003 47.2791C30.7476 47.8918 27.6742 51.5528 27.6742 51.5528C17.5505 41.7538 6.11101 38.7302 4.6593 38.3703C2.02471 37.7174 0.287054 38.3547 0.0416731 38.5936C-0.304737 38.1807 1.61717 36.0067 1.79568 35.5714C2.35262 34.2065 2.36897 32.7654 3.16491 31.4496C4.78093 28.7769 7.86859 28.0383 10.8175 28.3057C14.2509 28.6179 19.7363 30.4221 24.371 29.442C31.1267 28.0127 36.0729 22.4284 41.4801 16.8314C46.7243 11.4022 51.5852 5.6127 56.6332 0C56.7896 0.665747 56.925 1.33731 57.0393 2.01469Z" fill="#138AD5"/>
</svg>
