<svg width="29" height="28" viewBox="0 0 29 28" fill="none" xmlns="http://www.w3.org/2000/svg">
<path d="M29.0001 22.2132C29.0001 25.384 26.4024 27.9365 23.2114 27.9365H6.58308C3.37607 27.9365 0.794434 25.3682 0.794434 22.2132V5.78867C0.794434 2.6179 3.39211 0.0654297 6.58308 0.0654297H23.1954C26.4024 0.0654297 28.984 2.63375 28.984 5.78867V22.2132H29.0001Z" fill="white" fill-opacity="0.87"/>
<path d="M5.02765 10.6234H9.26089V24.0833H5.02765V10.6234ZM7.14427 3.91724C8.49121 3.91724 9.59763 5.01115 9.59763 6.34287C9.59763 7.67459 8.49121 8.76851 7.14427 8.76851C5.7813 8.76851 4.69092 7.69045 4.69092 6.34287C4.69092 5.01115 5.7813 3.91724 7.14427 3.91724Z" fill="#010C0F"/>
<path d="M11.907 10.6237H15.9639V12.4627H16.028C16.5892 11.4005 17.9682 10.2908 20.0368 10.2908C24.3181 10.2908 25.1199 13.081 25.1199 16.7116V24.0995H20.8866V17.5518C20.8866 15.9982 20.8545 13.9847 18.6898 13.9847C16.493 13.9847 16.1563 15.6811 16.1563 17.4409V24.0995H11.907V10.6237Z" fill="#010C0F"/>
</svg>
