<svg width="341" height="27" viewBox="0 0 341 27" fill="none" xmlns="http://www.w3.org/2000/svg">
<path d="M65.8206 5.46467V0.570923H50.0791V25.9368H65.9022V21.0431H56.1963V15.4153H64.7603V10.7662H56.1963V5.46467H65.8206Z" fill="white"/>
<path d="M0 0.570923V5.46467H6.85124V25.9368H13.05V5.46467H19.9828V0.570923H0Z" fill="white"/>
<path d="M38.9056 0.570923V10.3584H29.2812V0.570923H23.1641V25.9368H29.2812V15.3337H38.9056V25.9368H45.1044V0.570923H38.9056Z" fill="white"/>
<path d="M84.0908 5.46467H93.7152V0.570923H77.9736V25.9368H93.7967V21.0431H84.1724V5.46467H84.0908Z" fill="white"/>
<path d="M112.067 13.3762L120.06 0.570923H113.046L108.56 8.23779L103.34 0.570923H96.0811L104.482 12.8869L96.4073 25.9368H103.422L107.989 18.0253L113.372 25.9368H120.631L112.067 13.3762Z" fill="white"/>
<path d="M123.73 0.570923V25.9368H129.848V0.570923H123.73Z" fill="white"/>
<path d="M133.11 0.570923V5.46467H139.962V25.9368H146.16V5.46467H153.093V0.570923H133.11Z" fill="white"/>
<path d="M156.355 0.570923V25.9368H162.473V0.570923H156.355Z" fill="white"/>
<path d="M183.841 0.570923V16.3125L173.564 0.570923H167.447V25.9368H173.564V10.3584L183.841 25.9368H189.958V0.570923H183.841Z" fill="white"/>
<path d="M205.945 11.6634V16.0678H213.693C213.204 17.5359 212.47 18.6778 211.328 19.4934C210.268 20.309 208.963 20.7168 207.494 20.7168C205.211 20.7168 203.498 20.0643 202.274 18.7593C201.051 17.4543 200.398 15.5784 200.398 13.2131C200.398 11.0109 200.969 9.21654 202.111 7.91154C203.253 6.60654 204.884 5.95404 206.76 5.95404C207.984 5.95404 209.044 6.19873 209.941 6.76967C210.838 7.3406 211.491 7.9931 211.899 8.97185H218.424C217.934 6.28029 216.629 4.24123 214.59 2.69154C212.551 1.14186 209.941 0.326233 206.76 0.326233C204.232 0.326233 202.03 0.89717 200.072 1.95748C198.196 3.01779 196.728 4.56748 195.668 6.52498C194.608 8.48248 194.118 10.6847 194.118 13.2131C194.118 15.7415 194.608 17.9437 195.668 19.9012C196.728 21.8587 198.196 23.4084 200.072 24.4687C201.948 25.529 204.232 26.1 206.76 26.1C208.881 26.1 210.757 25.6922 212.388 24.8765C214.019 24.0609 215.406 23.0822 216.466 21.7772C217.527 20.4722 218.261 19.1672 218.75 17.6175V11.5819H205.945V11.6634Z" fill="white"/>
<path d="M247.706 2.77313C246.156 1.305 243.791 0.48938 240.773 0.48938H230.822V25.8553H236.939V17.0466H240.773C242.73 17.0466 244.443 16.7203 245.83 15.9862C247.216 15.2522 248.277 14.355 248.929 13.05C249.663 11.8266 249.989 10.44 249.989 8.80875C250.071 6.28031 249.255 4.32281 247.706 2.77313ZM240.12 12.1528H237.021V5.54625H240.12C242.567 5.54625 243.791 6.68813 243.791 8.89031C243.791 11.0109 242.567 12.1528 240.12 12.1528Z" fill="white"/>
<path d="M259.939 5.46467H269.563V0.570923H253.74V25.9368H269.563V21.0431H259.939V5.46467Z" fill="white"/>
<path d="M287.59 15.9862C289.547 15.4969 291.015 14.5997 291.994 13.2947C293.054 11.9897 293.544 10.44 293.544 8.56406C293.544 7.01438 293.218 5.62781 292.483 4.40438C291.831 3.18094 290.771 2.28375 289.384 1.54969C287.998 0.897192 286.285 0.48938 284.246 0.48938H273.806V16.3125H281.309L286.774 25.8553H293.544L287.59 15.9862ZM286.448 11.3372C285.877 11.9081 284.98 12.1528 283.756 12.1528H279.923V5.70938H283.756C284.98 5.70938 285.877 6.03563 286.448 6.60656C287.019 7.1775 287.345 7.99312 287.345 8.97187C287.263 10.0322 287.019 10.8478 286.448 11.3372Z" fill="white"/>
<path d="M319.481 0.570923H312.14L303.413 11.745V0.570923H297.296V25.9368H303.413V14.5997L312.059 25.9368H319.481L309.286 12.9684L319.481 0.570923Z" fill="white"/>
<path d="M339.952 14.7628C339.218 13.7025 338.321 12.9684 337.26 12.3975C336.2 11.8266 334.895 11.3372 333.264 10.7662C332.122 10.3584 331.306 10.0322 330.654 9.78749C330.083 9.54281 329.594 9.21656 329.186 8.72718C328.778 8.31937 328.615 7.83 328.615 7.1775C328.615 6.44343 328.86 5.8725 329.267 5.46468C329.675 5.05687 330.328 4.89375 330.98 4.89375C331.796 4.89375 332.448 5.13843 333.019 5.62781C333.509 6.11718 333.835 6.76968 333.916 7.58531H340.523C340.278 5.22 339.381 3.42562 337.668 2.03906C336.037 0.6525 333.753 0 330.899 0C329.186 0 327.636 0.32625 326.25 0.897187C324.863 1.46812 323.803 2.36531 323.069 3.42562C322.335 4.48593 321.927 5.79093 321.927 7.34062C321.927 8.97187 322.335 10.2769 323.069 11.3372C323.803 12.3975 324.7 13.1316 325.679 13.6209C326.657 14.1103 328.044 14.6812 329.594 15.2522C330.735 15.66 331.551 15.9862 332.204 16.2309C332.856 16.4756 333.346 16.8834 333.753 17.2912C334.161 17.6991 334.406 18.27 334.406 18.9225C334.406 19.6566 334.161 20.2275 333.753 20.6353C333.264 21.0431 332.693 21.2878 331.877 21.2878C330.98 21.2878 330.246 21.0431 329.594 20.4722C329.023 19.9012 328.696 19.1672 328.533 18.1884H322.008C322.171 20.6353 323.15 22.5928 325.026 23.9794C326.902 25.3659 329.186 26.0184 332.04 26.0184C333.916 26.0184 335.548 25.6922 336.853 25.0397C338.158 24.3872 339.218 23.49 339.87 22.3481C340.523 21.2062 340.931 19.9828 340.931 18.6778C341.012 17.1281 340.686 15.8231 339.952 14.7628Z" fill="white"/>
</svg>
