<svg width="441" height="32" viewBox="0 0 441 32" fill="none" xmlns="http://www.w3.org/2000/svg">
<path d="M20.1222 3.16684C18.2309 1.38272 15.4914 0.48584 11.8842 0.48584H0V30.8156H7.34094V20.1792H11.8842C13.9711 20.2423 16.043 19.8079 17.9287 18.9118C19.4966 18.1531 20.8032 16.9449 21.6822 15.4411C22.5448 13.9033 22.9822 12.1636 22.9497 10.4008C23.0131 9.06401 22.7941 7.72888 22.307 6.48245C21.8198 5.23601 21.0754 4.10625 20.1222 3.16684ZM11.0652 14.3005H7.34094V6.40356H11.0652C14.0095 6.40356 15.4914 7.73926 15.4914 10.4008C15.4914 13.0038 14.0095 14.3005 11.0652 14.3005Z" fill="white"/>
<path d="M43.8813 18.8925C45.9576 18.4631 47.8271 17.3428 49.1848 15.7142C50.4192 14.1072 51.063 12.1243 51.0078 10.0987C51.0388 8.3663 50.6082 6.6569 49.7601 5.14604C48.888 3.65808 47.5864 2.46861 46.0261 1.73382C44.1227 0.850843 42.0398 0.423587 39.9425 0.485946H34.7461V6.66695H39.2991C40.455 6.57601 41.6002 6.94374 42.4871 7.6906C42.8473 8.06631 43.1266 8.51196 43.3077 8.99995C43.4888 9.48794 43.5678 10.0079 43.5399 10.5277C43.5779 11.0474 43.5065 11.5693 43.3302 12.0597C43.1538 12.5501 42.8765 12.998 42.5161 13.3744C41.6038 14.0902 40.4548 14.4349 39.2991 14.3396H34.7461V19.3604H36.4229L42.9841 30.8158H51.0858L43.8813 18.8925Z" fill="white"/>
<path d="M74.4256 6.32561V0.48584H55.5513V30.8156H74.4256V24.9368H62.8827V18.2001H73.1389V12.6723H62.8827V6.32561H74.4256Z" fill="white"/>
<path d="M99.9491 0.48584L92.5299 23.3087L85.1106 0.48584H77.2529L87.7626 30.8156H97.2486L107.797 0.48584H99.9491Z" fill="white"/>
<path d="M111.492 0.48584V30.8156H118.824V0.48584H111.492Z" fill="white"/>
<path d="M146.999 15.8021C147.067 18.0277 146.306 20.1994 144.864 21.8953C144.147 22.6732 143.271 23.2869 142.295 23.6941C141.319 24.1014 140.266 24.2926 139.209 24.2547H139.151C138.082 24.3029 137.016 24.1166 136.028 23.709C135.039 23.3015 134.152 22.6824 133.428 21.8953C131.943 20.1242 131.184 17.8567 131.303 15.5486C131.176 13.2305 131.935 10.951 133.428 9.17258C134.154 8.39007 135.043 7.77536 136.031 7.37127C137.019 6.96717 138.084 6.78339 139.151 6.83275H139.16V0.0180696H139.151C136.44 -0.0125188 133.77 0.673597 131.41 2.00695C129.101 3.3197 127.191 5.23329 125.882 7.54449C124.499 9.98224 123.795 12.7463 123.844 15.5485C123.798 18.3536 124.501 21.1202 125.882 23.5624C127.182 25.8855 129.094 27.8076 131.41 29.1195C133.781 30.4304 136.446 31.1181 139.156 31.1181C141.865 31.1181 144.53 30.4304 146.901 29.1195C149.217 27.8076 151.129 25.8855 152.429 23.5624C153.771 21.1971 154.47 18.5215 154.457 15.802L146.999 15.8021Z" fill="white"/>
<path d="M177.114 15.5483V17.9856C177.228 19.6277 176.75 21.2563 175.769 22.5775C174.717 23.5967 173.309 24.1666 171.845 24.1666C170.38 24.1666 168.973 23.5967 167.921 22.5775C166.931 21.2598 166.45 19.6294 166.565 17.9856V0.48584H159.273V17.9856C159.192 20.4979 159.738 22.9907 160.862 25.239C161.831 27.1272 163.36 28.6697 165.24 29.6555C167.232 30.6631 169.442 31.1653 171.674 31.1178C173.942 31.1533 176.185 30.6452 178.216 29.6359C180.144 28.6533 181.733 27.1149 182.778 25.2196C183.962 22.997 184.54 20.5022 184.455 17.9856V15.5483L177.114 15.5483Z" fill="white"/>
<path d="M210.661 17.4786C209.843 16.3019 208.757 15.3362 207.493 14.6611C205.954 13.8946 204.36 13.2429 202.725 12.7113C201.38 12.2238 200.356 11.8241 199.635 11.5121C198.967 11.23 198.363 10.8154 197.86 10.2935C197.628 10.0513 197.445 9.76558 197.323 9.45276C197.201 9.13994 197.142 8.80611 197.149 8.47038C197.122 8.09556 197.18 7.71956 197.318 7.37022C197.457 7.02088 197.672 6.70715 197.948 6.45228C198.531 5.97273 199.271 5.72612 200.025 5.76007C200.461 5.73643 200.897 5.80301 201.306 5.95566C201.716 6.1083 202.089 6.34373 202.403 6.64722C203.023 7.29608 203.407 8.13345 203.495 9.02602H211.431C211.364 7.75036 211.029 6.50302 210.45 5.3645C209.871 4.22598 209.059 3.22157 208.068 2.4161C205.744 0.711508 202.902 -0.135945 200.025 0.0177653C198.119 -0.0173282 196.228 0.341125 194.468 1.0707C192.941 1.69539 191.625 2.74412 190.675 4.09293C189.741 5.46814 189.261 7.10093 189.3 8.76284C189.226 10.4435 189.683 12.1049 190.607 13.5107C191.416 14.6614 192.489 15.6009 193.736 16.2502C195.26 16.9873 196.83 17.6256 198.436 18.1611C199.752 18.6193 200.785 19.0093 201.526 19.3407C202.223 19.6391 202.855 20.0695 203.388 20.6081C203.637 20.8626 203.832 21.1648 203.961 21.4965C204.09 21.8283 204.15 22.1827 204.139 22.5385C204.155 22.9189 204.091 23.2984 203.952 23.6528C203.813 24.0071 203.601 24.3282 203.33 24.5955C202.716 25.136 201.914 25.4127 201.097 25.3657C200.607 25.3857 200.119 25.3091 199.659 25.1401C199.199 24.9712 198.776 24.7132 198.416 24.381C197.685 23.666 197.25 22.7019 197.197 21.6805H189.388C189.425 23.034 189.768 24.3615 190.391 25.5636C191.014 26.7658 191.901 27.8113 192.986 28.622C195.436 30.3635 198.396 31.2415 201.399 31.1178C203.39 31.1744 205.367 30.7637 207.171 29.9186C208.65 29.2085 209.898 28.0928 210.768 26.7013C211.584 25.3699 212.009 23.8365 211.997 22.2752C212.073 20.575 211.605 18.8949 210.661 17.4786Z" fill="white"/>
<path d="M246.821 17.4786C246.003 16.3018 244.917 15.3361 243.652 14.6611C242.114 13.8929 240.521 13.2411 238.885 12.7113C237.54 12.2238 236.516 11.8241 235.804 11.5121C235.132 11.2325 234.525 10.8177 234.02 10.2935C233.554 9.80181 233.299 9.14762 233.309 8.47037C233.282 8.09559 233.34 7.71961 233.478 7.37028C233.617 7.02095 233.832 6.7072 234.108 6.45227C234.691 5.9727 235.431 5.72608 236.185 5.76006C236.621 5.73645 237.057 5.80305 237.466 5.95569C237.876 6.10833 238.249 6.34374 238.563 6.64721C239.182 7.29765 239.569 8.13361 239.665 9.02602H247.601C247.53 7.7502 247.193 6.50331 246.612 5.36513C246.031 4.22695 245.219 3.22252 244.228 2.41609C241.904 0.711513 239.062 -0.13594 236.185 0.0177638C234.28 -0.0173285 232.388 0.341125 230.628 1.07069C229.102 1.69799 227.787 2.74619 226.835 4.09292C225.901 5.46822 225.421 7.10097 225.461 8.76283C225.386 10.4434 225.843 12.1048 226.767 13.5107C227.577 14.6639 228.654 15.6039 229.906 16.2502C231.426 16.9892 232.992 17.6275 234.595 18.1611C235.912 18.6193 236.945 19.0093 237.686 19.3407C238.384 19.6414 239.019 20.0714 239.558 20.6081C240.053 21.1582 240.321 21.8754 240.308 22.6153C240.296 23.3551 240.003 24.0627 239.49 24.5955C238.876 25.136 238.073 25.4127 237.257 25.3657C236.268 25.4043 235.305 25.0503 234.576 24.381C233.845 23.6659 233.41 22.7018 233.357 21.6805H225.548C225.587 23.0347 225.932 24.3625 226.556 25.5645C227.181 26.7666 228.07 27.8118 229.155 28.622C231.601 30.3648 234.558 31.243 237.559 31.1178C239.55 31.1755 241.527 30.7648 243.331 29.9186C244.812 29.2114 246.06 28.095 246.928 26.7013C247.744 25.37 248.169 23.8365 248.157 22.2752C248.233 20.575 247.765 18.8948 246.821 17.4786Z" fill="white"/>
<path d="M273.202 3.16684C271.32 1.38272 268.571 0.48584 264.974 0.48584H253.089V30.8156H260.421V20.1792H264.974C267.061 20.2423 269.133 19.8079 271.018 18.9118C272.584 18.1503 273.89 16.9428 274.772 15.4411C275.63 13.9016 276.067 12.1631 276.039 10.4008C276.103 9.06313 275.883 7.72704 275.395 6.48028C274.906 5.23353 274.158 4.10432 273.202 3.16684ZM264.155 14.3004H260.421V6.40356H264.155C267.099 6.40356 268.571 7.73596 268.571 10.4008C268.571 13.0038 267.099 14.3037 264.155 14.3005V14.3004Z" fill="white"/>
<path d="M287.836 6.32561H299.369V0.48584H280.495V30.8156H299.369V24.9368H287.836V6.32561Z" fill="white"/>
<path d="M321.763 0.700195H313.31L302.206 30.8155H309.927L311.809 25.278L313.7 19.7014L317.512 8.5483L321.295 19.7014L323.177 25.278L325.068 30.8155H332.877L321.763 0.700195Z" fill="white"/>
<path d="M363.071 0.48584H354.277L343.894 13.8325V0.48584H336.562V30.8156H343.894V17.2155L354.189 30.8156H363.071L350.845 15.3338L363.071 0.48584Z" fill="white"/>
<path d="M385.893 6.32561V0.48584H367.019V30.8156H385.893V24.9368H374.35V18.2001H384.607V12.6723H374.35V6.32561H385.893Z" fill="white"/>
<path d="M407.38 18.8925C409.457 18.4632 411.326 17.3428 412.684 15.7142C413.918 14.1072 414.562 12.1243 414.507 10.0987C414.538 8.36626 414.107 6.65683 413.259 5.14603C412.387 3.65803 411.086 2.46854 409.525 1.73381C407.622 0.850863 405.539 0.423608 403.442 0.485941H390.914V19.3604H399.922L406.483 30.8157H414.595L407.38 18.8925ZM406.016 13.3744C405.103 14.0902 403.954 14.4349 402.798 14.3395H398.245V6.66694H402.798C403.954 6.57597 405.099 6.9437 405.986 7.69059C406.347 8.06626 406.626 8.51189 406.807 8.99989C406.988 9.48789 407.067 10.0079 407.039 10.5277C407.077 11.0474 407.006 11.5693 406.829 12.0596C406.653 12.55 406.376 12.9979 406.016 13.3744Z" fill="white"/>
<path d="M439.514 17.4786C438.692 16.3013 437.603 15.3357 436.336 14.6611C434.8 13.8944 433.21 13.2427 431.578 12.7113C430.233 12.2238 429.199 11.8241 428.488 11.5121C427.82 11.23 427.216 10.8155 426.713 10.2935C426.481 10.0513 426.298 9.76558 426.176 9.45276C426.054 9.13994 425.995 8.80611 426.002 8.47038C425.976 8.0965 426.033 7.72153 426.169 7.37252C426.306 7.02352 426.518 6.7092 426.791 6.45228C427.379 5.97407 428.121 5.7278 428.878 5.76007C429.314 5.73733 429.75 5.80433 430.159 5.95693C430.568 6.10953 430.942 6.34447 431.256 6.64722C431.872 7.29856 432.256 8.13461 432.348 9.02603H440.284C440.214 7.75082 439.879 6.50419 439.3 5.36597C438.721 4.22775 437.91 3.22301 436.921 2.4161C434.597 0.711507 431.755 -0.135947 428.878 0.0177657C426.972 -0.0173042 425.081 0.341148 423.321 1.0707C421.792 1.69271 420.475 2.74199 419.528 4.09293C418.594 5.46818 418.114 7.10095 418.153 8.76284C418.074 10.444 418.531 12.1069 419.46 13.5107C420.264 14.6657 421.338 15.6062 422.589 16.2502C424.112 16.989 425.682 17.6273 427.288 18.1611C428.605 18.6193 429.628 19.0093 430.379 19.3407C431.076 19.6391 431.708 20.0695 432.241 20.6081C432.736 21.1582 433.004 21.8754 432.991 22.6152C432.979 23.3551 432.686 24.0627 432.173 24.5955C431.871 24.8638 431.52 25.07 431.138 25.2021C430.757 25.3343 430.353 25.3899 429.95 25.3657C429.46 25.3857 428.972 25.3091 428.512 25.1401C428.052 24.9712 427.629 24.7132 427.269 24.381C426.539 23.6645 426.101 22.702 426.041 21.6805H418.231C418.272 23.0343 418.618 24.3613 419.243 25.5631C419.867 26.7648 420.754 27.8104 421.839 28.622C424.288 30.3649 427.248 31.2429 430.252 31.1178C432.24 31.1755 434.214 30.7648 436.014 29.9186C437.496 29.2087 438.747 28.0932 439.621 26.7013C440.434 25.3692 440.856 23.8356 440.84 22.2752C440.919 20.5761 440.454 18.8959 439.514 17.4786Z" fill="white"/>
</svg>
