<svg width="87" height="27" viewBox="0 0 87 27" fill="none" xmlns="http://www.w3.org/2000/svg">
<path d="M13.1 25.8L7.6 16.2H6.2V25.8H0V0.400024H10.5C12.5 0.400024 14.2 0.700024 15.6 1.40002C17 2.10002 18 3.10002 18.7 4.30002C19.4 5.50002 19.7 6.90002 19.7 8.50002C19.7 10.3 19.2 11.9 18.2 13.2C17.2 14.5 15.7 15.4 13.8 15.9L19.8 25.9H13.1V25.8ZM6.2 12H10C11.2 12 12.1 11.7 12.7 11.2C13.3 10.7 13.6 9.90003 13.6 8.80002C13.6 7.80002 13.3 7.00002 12.7 6.40002C12.1 5.80002 11.2 5.50002 10 5.50002H6.2V12Z" fill="white"/>
<path d="M42.3004 13.1C42.3004 15.3 41.7004 17 40.5004 18.3C39.3004 19.6 37.7004 20.3 35.7004 20.3C33.7004 20.3 32.1004 19.6 30.9004 18.3C29.7004 17 29.1004 15.2 29.1004 13C29.1004 10.7 29.7004 9 30.9004 7.7C32.1004 6.4 33.7004 5.7 35.7004 5.7V0C33.3004 0 31.2004 0.6 29.2004 1.7C27.3004 2.8 25.7004 4.4 24.6004 6.4C23.5004 8.4 22.9004 10.6 22.9004 13.1C22.9004 15.6 23.5004 17.8 24.6004 19.8C25.7004 21.8 27.3004 23.4 29.2004 24.5C31.2004 25.6 33.3004 26.2 35.7004 26.2C38.1004 26.2 40.2004 25.6 42.2004 24.5C44.1004 23.4 45.7004 21.8 46.8004 19.8C47.9004 17.8 48.5004 15.6 48.5004 13.2H42.3004V13.1Z" fill="white"/>
<path d="M58.9002 21.1H67.1002V25.8H52.7002V0.400024H58.9002V21.1Z" fill="white"/>
<path d="M76.8002 5.30002V10.6H85.4002V15.2H76.8002V20.9H86.5002V25.8H70.7002V0.400024H86.5002V5.30002H76.8002Z" fill="white"/>
</svg>
