<svg width="35" height="34" viewBox="0 0 35 34" fill="none" xmlns="http://www.w3.org/2000/svg">
<path d="M33.6592 26.9055L28.4097 21.6322C27.3598 20.5776 25.635 20.6529 24.5851 21.7076L21.9604 24.3442C21.8104 24.2689 21.5854 24.1182 21.4354 24.0429C19.7856 23.1389 17.4608 21.8582 15.061 19.4476C12.6613 17.0369 11.3864 14.7016 10.4865 13.0443C10.4115 12.8936 10.2615 12.6677 10.1865 12.517L11.9863 10.709L12.8862 9.80501C13.9361 8.75035 14.0111 6.94237 12.9612 5.96305L7.71175 0.689763C6.58686 -0.289561 4.86203 -0.214229 3.73713 0.840428L2.23728 2.34708L2.31227 2.42241C1.78732 3.02507 1.41236 3.7784 1.11239 4.53173C0.812419 5.28505 0.587441 6.03838 0.512448 6.71637C-0.162486 12.517 2.46226 17.7903 9.58657 24.8715C19.4106 34.7401 27.3598 33.9868 27.7348 33.9868C28.4847 33.9115 29.1597 33.6855 29.9096 33.4595C30.6595 33.1581 31.4094 32.7061 32.0844 32.2541L33.5842 30.7475C34.6341 29.6928 34.7091 27.9602 33.6592 26.9055Z" fill="#3A667B"/>
</svg>
