<svg width="354" height="354" viewBox="0 0 354 354" fill="none" xmlns="http://www.w3.org/2000/svg">
<path d="M0.038297 170.114C-1.7617 94.1145 60.0383 12.9845 154.038 1.48449C210.268 -5.38551 259.698 11.6245 300.468 51.7845C307.528 58.7845 307.328 60.0745 297.968 63.7845C255.268 80.7245 212.542 97.6078 169.788 114.434C160.258 118.204 150.728 121.944 141.268 125.854C136.028 128.024 132.808 131.524 135.708 137.554C138.368 143.044 142.468 143.974 148.158 141.714C201.305 120.594 254.495 99.5745 307.728 78.6545C318.218 74.5245 321.328 75.7145 327.278 85.5445C347.358 118.694 356.788 154.885 351.788 193.135C344.458 249.245 319.248 295.574 269.788 326.224C204.388 366.734 123.788 361.524 63.9683 313.034C61.7583 311.234 57.9683 309.704 58.6183 306.494C59.1483 303.734 63.0083 303.714 65.4883 302.724C122.822 279.991 180.155 257.278 237.488 234.584C244.658 231.744 247.098 227.445 244.578 222.124C241.578 215.865 236.438 216.335 231.138 218.415C185.138 236.535 139.138 254.688 93.1383 272.874C78.745 278.581 64.3883 284.381 50.0683 290.274C45.3083 292.274 41.9383 291.614 38.4583 287.184C12.8183 254.564 -0.451703 217.784 0.038297 170.114Z" fill="url(#paint0_linear)"/>
<defs>
<linearGradient id="paint0_linear" x1="25.3983" y1="72.1545" x2="320.878" y2="277.084" gradientUnits="userSpaceOnUse">
<stop stop-color="#109EB2"/>
<stop offset="0.37" stop-color="#1393BB"/>
<stop offset="1" stop-color="#1684C6"/>
</linearGradient>
</defs>
</svg>
