<?xml version="1.0" encoding="utf-8"?>
<!-- Generator: Adobe Illustrator 22.0.0, SVG Export Plug-In . SVG Version: 6.00 Build 0)  -->
<svg version="1.1" id="Layer_1" xmlns="http://www.w3.org/2000/svg" xmlns:xlink="http://www.w3.org/1999/xlink" x="0px" y="0px"
	 viewBox="0 0 238 100" style="enable-background:new 0 0 238 100;" xml:space="preserve">
<style type="text/css">
	.st0{fill:#FFFFFF;}
	.st1{fill:#138AD6;}
	.st2{fill:#212121;}
</style>
<g>
	<g>
		<g>
			<path class="st0" d="M115.4,60.1v5.4H89.5V31h25.2v5.4H95.9v9h16.7v5.3H95.9v9.5H115.4z"/>
			<path class="st0" d="M119.7,49.2h13.6v5.1h-13.6V49.2z"/>
			<path class="st0" d="M147.4,63.7c-2.8-1.5-5-3.6-6.6-6.3c-1.6-2.7-2.4-5.7-2.4-9.1c0-3.4,0.8-6.4,2.4-9.1
				c1.6-2.7,3.8-4.8,6.6-6.3c2.8-1.5,6-2.3,9.5-2.3c2.8,0,5.4,0.5,7.7,1.5c2.3,1,4.3,2.4,5.9,4.3l-4.1,3.9c-2.5-2.7-5.6-4-9.2-4
				c-2.4,0-4.5,0.5-6.4,1.6c-1.9,1-3.3,2.5-4.4,4.3c-1.1,1.8-1.6,3.9-1.6,6.3c0,2.3,0.5,4.4,1.6,6.3c1.1,1.8,2.5,3.3,4.4,4.3
				s4,1.6,6.4,1.6c3.7,0,6.7-1.4,9.2-4.1l4.1,3.9c-1.6,1.9-3.6,3.3-5.9,4.3c-2.4,1-4.9,1.5-7.8,1.5C153.4,66,150.2,65.2,147.4,63.7z
				"/>
			<path class="st0" d="M199.8,54.3h-20.7c0.4,1.9,1.3,3.5,2.8,4.6c1.5,1.1,3.4,1.7,5.7,1.7c2.9,0,5.3-1,7.2-2.9l3.3,3.8
				c-1.2,1.4-2.7,2.5-4.5,3.2c-1.8,0.7-3.8,1.1-6.1,1.1c-2.9,0-5.4-0.6-7.6-1.7c-2.2-1.2-3.9-2.8-5.1-4.8s-1.8-4.4-1.8-7
				c0-2.6,0.6-4.9,1.8-6.9c1.2-2.1,2.8-3.7,4.9-4.8c2.1-1.2,4.4-1.7,7-1.7c2.6,0,4.9,0.6,6.9,1.7s3.6,2.7,4.7,4.8
				c1.1,2.1,1.7,4.4,1.7,7.1C199.9,52.9,199.9,53.5,199.8,54.3z M181.6,45.6c-1.4,1.2-2.2,2.7-2.5,4.7h15c-0.3-1.9-1.1-3.5-2.4-4.6
				c-1.3-1.2-3-1.8-5-1.8C184.6,43.8,183,44.4,181.6,45.6z"/>
			<path class="st0" d="M205.8,28.9h6.2v36.6h-6.2V28.9z"/>
			<path class="st0" d="M220.1,28.9h6.2v36.6h-6.2V28.9z"/>
		</g>
		<g>
			<g>
				<path class="st0" d="M89.8,77h1.8v10.9h-1.8V77z"/>
				<path class="st0" d="M97.5,77h1.8v10.9h-1.8V77z"/>
				<path class="st0" d="M109.4,78.7v9.2h-1.8v-9.2h-3.3V77h8.5v1.7H109.4z"/>
				<path class="st0" d="M140.7,80.6c0,1.8-0.8,2.9-2.4,3.4l2.9,4h-2.3l-2.6-3.7h-2.4v3.7H132V77h4.1c1.7,0,2.9,0.3,3.6,0.8
					C140.3,78.4,140.7,79.3,140.7,80.6z M138.2,82.1c0.4-0.3,0.6-0.8,0.6-1.6s-0.2-1.2-0.6-1.5c-0.4-0.3-1.1-0.4-2.1-0.4h-2.3v3.9
					h2.3C137.1,82.6,137.9,82.4,138.2,82.1z"/>
				<path class="st0" d="M155.4,86.4c-1.1,1.1-2.5,1.6-4.1,1.6c-1.6,0-3-0.5-4.1-1.6c-1.1-1.1-1.7-2.4-1.7-4s0.6-3,1.7-4
					c1.1-1.1,2.5-1.6,4.1-1.6c1.6,0,3,0.5,4.1,1.6c1.1,1.1,1.7,2.4,1.7,4S156.5,85.4,155.4,86.4z M154,79.6
					c-0.7-0.8-1.7-1.2-2.7-1.2c-1.1,0-2,0.4-2.7,1.2s-1.1,1.7-1.1,2.8s0.4,2,1.1,2.8c0.7,0.8,1.7,1.2,2.7,1.2c1.1,0,2-0.4,2.7-1.2
					c0.7-0.8,1.1-1.7,1.1-2.8S154.8,80.4,154,79.6z"/>
				<path class="st0" d="M171.4,86.4c-1.1,1.1-2.5,1.6-4.1,1.6c-1.6,0-3-0.5-4.1-1.6c-1.1-1.1-1.7-2.4-1.7-4s0.6-3,1.7-4
					c1.1-1.1,2.5-1.6,4.1-1.6c1.6,0,3,0.5,4.1,1.6c1.1,1.1,1.7,2.4,1.7,4S172.5,85.4,171.4,86.4z M170,79.6
					c-0.7-0.8-1.7-1.2-2.7-1.2c-1.1,0-2,0.4-2.7,1.2s-1.1,1.7-1.1,2.8s0.4,2,1.1,2.8c0.7,0.8,1.7,1.2,2.7,1.2c1.1,0,2-0.4,2.7-1.2
					c0.7-0.8,1.1-1.7,1.1-2.8S170.8,80.4,170,79.6z"/>
				<path class="st0" d="M187,80.6c0,1.8-0.8,2.9-2.4,3.4l2.9,4h-2.3l-2.6-3.7h-2.4v3.7h-1.8V77h4.1c1.7,0,2.9,0.3,3.6,0.8
					C186.6,78.4,187,79.3,187,80.6z M184.5,82.1c0.4-0.3,0.6-0.8,0.6-1.6s-0.2-1.2-0.6-1.5c-0.4-0.3-1.1-0.4-2.1-0.4h-2.3v3.9h2.3
					C183.4,82.6,184.1,82.4,184.5,82.1z"/>
				<path class="st0" d="M192.5,77h1.8v5.3l5-5.3h2.3l-4.4,4.8l4.5,6.1h-2.2l-3.6-4.8l-1.6,1.7v3.1h-1.8V77z"/>
				<path class="st0" d="M214,77v1.7h-5.8v2.9h5.2v1.6h-5.2v2.9h6v1.7h-7.9V77H214z"/>
				<path class="st0" d="M227.1,77v1.7h-5.8v2.9h5.2v1.6h-5.2v2.9h6v1.7h-7.9V77H227.1z"/>
			</g>
		</g>
	</g>
	<g>
		<g>
			<path class="st1" d="M47.7,77C47.7,77,47.7,77,47.7,77"/>
			<g>
				<path class="st1" d="M69.9,43.3c1,6,0.6,11.3-3.5,16c-4.7,5.5-12.1,13.3-16.9,18.7c-2.5-4.6-4-6.6-7.9-11.3
					c8.7-9.8,17.8-20.2,26.6-29.9C69,38.9,69.6,41.1,69.9,43.3z"/>
			</g>
			<g>
				<path class="st1" d="M55.9,94.8c-2.2-8.2-4.2-11.9-4.2-11.9c1.1-1,7.3-8.2,9.5-10.9C63.1,81.5,60.3,89.4,55.9,94.8z"/>
			</g>
			<g>
				<path class="st1" d="M70.8,7.5c1.3,7.6,1.5,16.1-3.7,22.3c-6.5,7.9-13.5,15.5-20.4,23.1c-1.6,1.8-3.2,3.5-4.8,5.3
					c-0.6,0.7-4.1,4.8-4.1,4.8C26.6,52,13.8,48.6,12.1,48.2c-2.9-0.7-4.9,0-5.2,0.2c-0.4-0.5,1.8-2.9,2-3.4c0.6-1.5,0.6-3.1,1.5-4.6
					c1.8-3,5.3-3.8,8.6-3.5c3.8,0.3,10,2.4,15.2,1.3c7.6-1.6,13.1-7.8,19.1-14.1c5.9-6.1,11.3-12.6,17-18.8
					C70.5,6,70.6,6.7,70.8,7.5z"/>
			</g>
		</g>
	</g>
</g>
</svg>
