<svg width="854" height="80" viewBox="0 0 854 80" fill="none" xmlns="http://www.w3.org/2000/svg">
<path opacity="0.15" d="M36 35.75V49.25H59.75C58.25 53.75 56 57.25 52.5 59.75C49.25 62.25 45.25 63.5 40.75 63.5C33.75 63.5 28.5 61.5 24.75 57.5C21 53.75 19 48 19 40.5C19 33.75 20.75 28.25 24.5 24.25C28 20.25 32.75 18.25 38.75 18.25C42.5 18.25 45.75 19 48.5 20.75C51.25 22.5 53.25 24.5 54.5 27.5H74.5C73 19.25 69 13 62.75 8C56.5 3.25 48.5 0.75 38.75 0.75C31 0.75 24.25 2.5 18.25 5.75C12.5 9.25 8 14 4.75 20C1.5 26 0 32.75 0 40.5C0 48.25 1.5 55 4.75 61C8 67 12.5 71.75 18.25 75C24.25 78.25 31 80 38.75 80C45.25 80 51 78.75 56 76.25C61 73.75 65.25 70.75 68.25 66.75C71.5 62.75 73.75 58.75 75.25 54V35.5H36V35.75ZM133.75 40.5V46.5C133.75 51.75 132.5 55.5 130.25 58.25C128 61 124.5 62.25 120.25 62.25C115.75 62.25 112.5 61 110.25 58.25C108 55.5 106.75 51.75 106.75 46.5V1.5H88V46.5C88 53.75 89.25 60 92 65C94.75 70 98.5 73.75 103.25 76.25C108 78.75 113.5 80 119.75 80C126 80 131.5 78.75 136.5 76.25C141.5 73.75 145.25 70 148.25 65C151 60 152.5 53.75 152.5 46.5V40.5H133.75ZM186 16.75H215.5V1.75H167.25V79.5H215.75V64.5H186V16.75ZM281 45.25C278.75 42 276 39.75 272.75 38C269.5 36.25 265.5 34.75 260.5 33C257 31.75 254.5 30.75 252.5 30C250.75 29.25 249.25 28.25 248 26.75C246.75 25.5 246.25 24 246.25 22C246.25 19.75 247 18 248.25 16.75C249.75 15.5 251.5 15 253.5 15C256 15 258 15.75 259.5 17.25C261 18.75 262 20.75 262.25 23.25H282.5C281.75 16 279 10.5 274 6.25C269 2.25 262 0 253.25 0C248 0 243.25 1 239 2.75C234.75 4.5 231.75 7.25 229.25 10.5C227 13.75 225.75 18 225.75 22.5C225.75 27.5 226.75 31.5 229 34.75C231.25 37.75 234 40.25 237 41.75C240.25 43.25 244.25 45 249 46.75C252.25 48 255 49 257 49.75C259 50.5 260.5 51.75 261.75 53C263 54.25 263.75 56 263.75 58C263.75 60.25 263 62 261.75 63.25C260.25 64.5 258.5 65.25 256 65.25C253.25 65.25 251 64.5 249 62.75C247.25 61 246.25 58.75 245.75 55.75H225.75C226.25 63.25 229.25 69.25 235 73.5C238 75.75 241.5 77.5 245.5 78.5C249 79.5 252.75 80 256.75 80C262.5 80 267.5 79 271.5 77C275.5 75 278.75 72.25 280.75 68.75C282.75 65.25 284 61.5 284 57.5C284.25 52.5 283.25 48.5 281 45.25ZM292 1.75V16.75H313V79.5H332V16.75H353V1.75H292ZM406 65V1.75H387.25V79.5H431.25V65H406ZM460.75 16.75H490.25V1.75H441.75V79.5H490.25V64.5H460.75V16.75ZM549.25 59.5C546.25 61.5 542.5 62.5 538.5 62.5C533 62.5 528.5 60.5 525.25 56.5C522 52.5 520.25 47 520.25 40.5C520.25 33.75 522 28.25 525.25 24.25C528.75 20.25 533 18.25 538.5 18.25C542.75 18.25 546.25 19.25 549.25 21.25C552.25 23.25 554.5 26.25 556 29.75H576C574 20.75 570 13.75 563.5 8.5C557 3.25 548.75 0.75 539 0.75C531.5 0.75 524.75 2.5 519 5.75C513.25 9 508.75 13.75 505.75 19.75C502.5 25.75 501 32.5 501 40.25C501 48 502.5 54.75 505.75 60.75C509 66.75 513.25 71.5 519 74.75C524.75 78 531.25 79.75 539 79.75C549 79.75 557 77.25 563.5 72C570 66.75 574.25 59.75 576 51H556C554.5 54.75 552.25 57.5 549.25 59.5ZM583.75 1.75V16.75H604.75V79.5H623.75V16.75H645V1.75H583.75ZM700 41V46.5C700 51.75 698.75 55.5 696.5 58.25C694.25 61 690.75 62.25 686.5 62.25C682.25 62.25 678.75 61 676.5 58.25C674.25 55.5 673 51.75 673 46.5V1.5H654.25V46.5C654.25 53.75 655.75 60 658.25 65C661 70 664.75 73.75 669.5 76.25C674.25 78.75 679.75 80 686 80C692.25 80 697.75 78.75 702.75 76.25C702.75 76.25 703 76.25 703 76C707.75 73.5 711.75 69.75 714.5 64.75C717.25 59.75 718.75 53.5 718.75 46.25V40.75H700V41ZM775.75 49C781.75 47.5 786.25 44.75 789.25 40.75C792.25 36.75 794 32 794 26.25C794 21.5 793 17.25 790.75 13.5C788.75 9.75 785.5 6.75 781.25 4.75C777 2.5 771.75 1.5 765.75 1.5H733.75V50H756.75L773.5 79.5H794.25L775.75 49ZM772.25 34.75C770.5 36.5 767.75 37.25 764 37.25H752.25V17.5H764C767.75 17.5 770.5 18.25 772.25 20C774 21.75 775 24.25 775 27.25C775 30.75 774 33 772.25 34.75ZM854 16.75V1.75H805.5V79.5H854V64.5H824.5V47.25H850.75V33H824.5V16.75H854Z" fill="url(#paint0_linear)"/>
<defs>
<linearGradient id="paint0_linear" x1="427" y1="0" x2="426.881" y2="80.3084" gradientUnits="userSpaceOnUse">
<stop stop-color="#359D9A"/>
<stop offset="1" stop-color="#030D0F"/>
</linearGradient>
</defs>
</svg>
