<svg width="1053" height="80" viewBox="0 0 1053 80" fill="none" xmlns="http://www.w3.org/2000/svg">
<path opacity="0.15" d="M51.3396 8.47352C46.6044 3.98754 39.377 1.49533 30.1558 1.49533H0V79.0031H18.6916V52.0872H30.405C36.3863 52.0872 41.6199 51.0903 45.8567 48.8474C50.0935 46.6044 53.3333 43.8629 55.3271 39.8754C57.5701 36.1371 58.567 31.9003 58.567 26.9159C58.567 19.19 56.324 13.2087 51.3396 8.47352ZM28.4112 37.134H18.6916V16.947H28.162C35.6386 16.947 39.3769 20.4361 39.3769 27.1651C39.6262 33.6449 35.8879 37.134 28.4112 37.134ZM114.393 2.24299H92.7103L64.5483 79.2523H84.2368L88.972 65.0467L93.7072 50.8411L103.427 22.4299L113.146 50.8411L117.882 65.0467L122.617 79.2523H142.555L114.393 2.24299ZM202.368 1.74455V49.8442L170.966 1.74455H152.274V79.2523H170.966V31.6511L202.368 79.2523H221.059V1.74455H202.368ZM254.953 16.6978H284.361V1.74455H236.262V79.2523H284.611V64.2991H255.203V16.6978H254.953ZM316.262 64.7975V1.74455H297.57V79.2523H341.184V64.7975H316.262ZM440.872 20.1869C437.632 14.2056 432.897 9.71963 426.916 6.47975C420.935 3.23988 413.707 1.74455 405.234 1.74455H375.826V79.2523H405.234C413.458 79.2523 420.685 77.5078 426.667 74.2679C432.648 71.028 437.383 66.2928 440.623 60.5608C443.863 54.5794 445.608 47.8505 445.608 40.3738C445.857 32.648 444.361 25.919 440.872 20.1869ZM420.935 56.5732C416.947 60.5608 411.215 62.3053 403.988 62.3053H395.016V18.1931H403.988C411.215 18.1931 416.947 20.1869 420.935 23.9252C424.922 27.6636 426.916 33.1464 426.916 40.1246C426.916 47.352 424.922 52.8349 420.935 56.5732ZM458.816 1.74455V79.2523H477.508V1.74455H458.816ZM544.798 45.109C542.555 41.8692 539.813 39.6262 536.573 37.8816C533.333 36.1371 529.346 34.6417 524.361 32.8972C520.872 31.6511 518.38 30.6542 516.386 29.9065C514.642 29.1589 513.146 28.162 511.9 26.6667C510.654 25.4206 510.156 23.9252 510.156 21.9315C510.156 19.6885 510.903 17.9439 512.15 16.6978C513.396 15.4517 515.389 14.9533 517.383 14.9533C519.875 14.9533 521.869 15.7009 523.365 17.1963C524.86 18.6916 525.857 20.6854 526.106 23.1776H546.293C545.545 15.9502 542.804 10.4673 537.819 6.23053C532.835 2.24299 525.857 0 517.134 0C511.9 0 507.165 0.996885 502.928 2.74143C498.692 4.48598 495.701 7.22741 493.209 10.4673C490.966 13.7072 489.72 17.9439 489.72 22.4299C489.72 27.4143 490.717 31.4019 492.96 34.6417C495.203 37.8816 497.944 40.1246 500.935 41.6199C504.174 43.1153 508.162 44.8598 512.897 46.6044C516.137 47.8505 518.879 48.8474 520.872 49.595C522.866 50.3427 524.361 51.5888 525.607 52.8349C526.854 54.081 527.601 55.8256 527.601 57.8193C527.601 60.0623 526.854 61.8069 525.607 63.053C524.112 64.2991 522.368 65.0467 519.875 65.0467C517.134 65.0467 514.891 64.2991 512.897 62.5545C511.153 60.81 510.156 58.567 509.657 55.5763H489.72C490.218 63.3022 493.209 69.0343 498.941 73.271C504.673 77.5078 511.651 79.7508 520.374 79.7508C526.106 79.7508 531.09 78.7539 535.078 76.7601C539.065 74.7664 542.305 72.0249 544.299 68.5358C546.293 65.0467 547.539 61.3084 547.539 57.3209C548.287 52.3365 547.041 48.3489 544.798 45.109ZM606.854 59.3147C603.863 61.3084 600.125 62.3053 596.137 62.3053C590.654 62.3053 586.168 60.3115 582.928 56.324C579.439 52.3365 577.944 47.1028 577.944 40.3738C577.944 33.6449 579.689 28.162 582.928 24.1745C586.168 20.1869 590.654 18.1931 596.137 18.1931C600.374 18.1931 603.863 19.19 606.854 21.1838C609.844 23.1776 612.087 26.1682 613.583 29.6573H633.52C631.527 20.9346 627.539 13.7072 621.059 8.47352C614.579 3.23988 606.355 0.747664 596.636 0.747664C589.159 0.747664 582.43 2.49221 576.698 5.73209C570.966 8.97196 566.48 13.7072 563.489 19.6885C560.499 25.6698 558.754 32.648 558.754 40.1246C558.754 47.8505 560.249 54.5794 563.489 60.5608C566.729 66.5421 570.966 71.2773 576.698 74.5171C582.43 77.757 588.91 79.5016 596.636 79.5016C606.604 79.5016 614.579 77.0094 621.059 71.7757C627.539 66.5421 631.776 59.5639 633.52 50.8411H613.583C612.087 54.5794 609.844 57.3209 606.854 59.3147ZM691.34 40.8723V46.6044C691.34 51.5888 690.094 55.5763 687.851 58.3178C685.608 61.0592 682.118 62.3053 677.882 62.3053C673.645 62.3053 670.156 61.0592 667.913 58.3178C665.67 55.5763 664.424 51.5888 664.424 46.6044V1.74455H645.732V46.6044C645.732 53.8318 646.978 60.0623 649.72 65.0467C652.461 70.0312 656.199 73.7695 660.935 76.2617C665.67 78.7539 671.153 80 677.383 80C683.614 80 689.097 78.7539 694.081 76.2617C699.065 73.7695 703.053 70.0312 705.794 65.0467C708.536 60.0623 710.031 53.8318 710.031 46.6044V40.8723H691.34ZM777.072 45.109C774.829 41.8692 772.087 39.6262 768.847 37.8816C765.608 36.1371 761.62 34.6417 756.636 32.8972C753.146 31.6511 750.654 30.6542 748.66 29.9065C746.916 29.1589 745.421 28.162 744.175 26.6667C742.928 25.4206 742.43 23.9252 742.43 21.9315C742.43 19.6885 743.178 17.9439 744.424 16.6978C745.919 15.4517 747.664 14.9533 749.657 14.9533C752.15 14.9533 754.143 15.7009 755.639 17.1963C757.134 18.6916 758.131 20.6854 758.38 23.1776H778.567C777.819 15.9502 775.078 10.4673 770.094 6.23053C765.109 2.24299 758.131 0 749.408 0C744.175 0 739.439 0.996885 735.203 2.74143C730.966 4.48598 727.726 7.22741 725.483 10.4673C723.24 13.7072 721.994 17.9439 721.994 22.4299C721.994 27.4143 722.991 31.4019 725.234 34.6417C727.477 37.8816 730.218 40.1246 733.209 41.6199C736.199 43.1153 740.436 44.8598 745.171 46.6044C748.661 47.8505 751.153 48.8474 753.146 49.595C755.14 50.3427 756.636 51.5888 757.882 52.8349C759.128 54.081 759.875 55.8256 759.875 57.8193C759.875 60.0623 759.128 61.8069 757.882 63.053C756.386 64.2991 754.642 65.0467 752.15 65.0467C749.408 65.0467 747.165 64.2991 745.171 62.5545C743.427 60.81 742.43 58.567 741.932 55.5763H721.994C722.492 63.3022 725.483 69.0343 731.215 73.271C736.947 77.5078 743.925 79.7508 752.648 79.7508C758.38 79.7508 763.365 78.7539 767.352 76.7601C771.34 74.7664 774.58 72.0249 776.573 68.5358C778.567 65.0467 779.813 61.3084 779.813 57.3209C780.312 52.3365 779.315 48.3489 777.072 45.109ZM845.358 45.109C843.115 41.8692 840.374 39.6262 837.134 37.8816C833.894 36.1371 829.907 34.6417 824.922 32.8972C821.433 31.6511 818.941 30.6542 816.947 29.9065C815.203 29.1589 813.707 28.162 812.461 26.6667C811.215 25.4206 810.717 23.9252 810.717 21.9315C810.717 19.6885 811.464 17.9439 812.71 16.6978C813.956 15.4517 815.95 14.9533 817.944 14.9533C820.436 14.9533 822.43 15.7009 823.925 17.1963C825.421 18.6916 826.418 20.6854 826.667 23.1776H846.854C846.106 15.9502 843.365 10.4673 838.38 6.23053C833.396 2.24299 826.418 0 817.695 0C812.461 0 807.726 0.996885 803.489 2.74143C799.252 4.48598 796.013 7.22741 793.77 10.4673C791.527 13.7072 790.28 17.9439 790.28 22.4299C790.28 27.4143 791.277 31.4019 793.52 34.6417C795.763 37.8816 798.505 40.1246 801.495 41.6199C804.735 43.1153 808.723 44.8598 813.458 46.6044C816.947 47.8505 819.439 48.8474 821.433 49.595C823.427 50.3427 824.922 51.5888 826.168 52.8349C827.414 54.081 828.162 55.8256 828.162 57.8193C828.162 60.0623 827.414 61.8069 826.168 63.053C824.673 64.2991 822.928 65.0467 820.436 65.0467C817.695 65.0467 815.452 64.2991 813.458 62.5545C811.713 60.81 810.717 58.567 810.218 55.5763H790.28C790.779 63.3022 793.77 69.0343 799.502 73.271C805.234 77.5078 812.212 79.7508 820.935 79.7508C826.667 79.7508 831.651 78.7539 835.639 76.7601C839.626 74.7664 842.866 72.0249 844.86 68.5358C846.854 65.0467 848.1 61.3084 848.1 57.3209C848.847 52.3365 847.601 48.3489 845.358 45.109ZM861.308 1.74455V79.2523H880V1.74455H861.308ZM952.025 40.8723C952.025 47.352 950.031 52.5857 946.542 56.5732C942.804 60.5608 938.069 62.5545 931.838 62.5545C925.608 62.5545 920.872 60.5608 917.134 56.5732C913.396 52.5857 911.651 47.1028 911.651 40.3738C911.651 33.3956 913.396 28.162 917.134 24.1745C920.623 20.1869 925.608 18.1931 931.838 18.1931V0.498442C924.611 0.498442 917.882 2.24299 912.15 5.48287C906.168 8.97196 901.433 13.7072 897.944 19.6885C894.455 25.6698 892.71 32.648 892.71 40.1246C892.71 47.6012 894.455 54.5794 897.944 60.5608C901.433 66.5421 906.168 71.2773 912.15 74.7664C918.131 78.2555 924.611 79.7508 931.838 79.7508C939.065 79.7508 945.794 78.0062 951.527 74.7664C957.508 71.2773 962.243 66.5421 965.732 60.5608C969.221 54.5794 970.966 48.0997 970.966 40.6231H952.025V40.8723ZM1034.02 1.74455V49.8442L1002.62 1.74455H983.925V79.2523H1002.62V31.6511L1034.02 79.2523H1052.71V1.74455H1034.02Z" fill="url(#paint0_linear)"/>
<defs>
<linearGradient id="paint0_linear" x1="526.355" y1="0" x2="526.259" y2="80.3085" gradientUnits="userSpaceOnUse">
<stop stop-color="#359D9A"/>
<stop offset="1" stop-color="#030D0F"/>
</linearGradient>
</defs>
</svg>
