<svg width="1485" height="120" viewBox="0 0 1485 120" fill="none" xmlns="http://www.w3.org/2000/svg">
<g opacity="0.15">
<path d="M75.6113 2.63312L42.884 2.63312L0 118.871H29.7179L36.8652 97.4293L44.0125 75.9873L58.6834 33.1033L73.3542 75.9873L80.5015 97.4293L87.6489 118.871H117.743L75.6113 2.63312Z" fill="url(#paint0_linear)"/>
<path d="M219.686 68.8401C215.548 63.5737 209.906 60.1881 202.758 58.6834C208.777 57.1787 213.667 54.1693 217.429 49.6552C221.191 44.7649 223.072 39.1223 223.072 31.975C223.072 22.1944 219.686 15.0471 213.291 9.7806C206.896 4.51415 197.492 1.88092 185.83 1.88092L132.414 1.88092L132.414 118.871L186.959 118.871C199.373 118.871 209.153 115.862 215.548 110.596C222.319 104.953 225.705 97.0533 225.705 86.8966C225.705 80.1254 223.824 74.1066 219.686 68.8401ZM161.003 24.4514L179.059 24.4514C189.216 24.4514 194.106 28.5894 194.106 36.8652C194.106 45.1411 189.216 49.279 179.435 49.279H161.003V24.4514ZM180.94 95.9248L160.627 95.9248V69.5925L180.564 69.5925C185.454 69.5925 189.592 70.721 192.225 72.9781C194.859 75.2351 196.363 78.6207 196.363 82.7586C196.74 91.4107 191.473 95.9248 180.94 95.9248Z" fill="url(#paint1_linear)"/>
<path d="M329.906 60.9404C329.906 70.721 326.897 78.6207 321.63 84.6395C315.987 90.6583 308.84 93.6677 299.812 93.6677C290.407 93.6677 283.26 90.6583 277.618 84.6395C272.351 78.6207 269.342 70.3448 269.342 60.1881C269.342 49.6552 271.975 41.7555 277.618 35.7367C282.884 29.3417 290.408 26.3323 299.436 26.3323V0C288.527 0 278.37 2.63323 269.342 7.52351C260.313 12.79 253.166 19.9373 247.9 28.9655C242.633 37.9937 240 48.5266 240 59.8119C240 71.0972 242.633 81.6301 247.9 90.6583C253.166 99.6865 260.313 106.834 269.342 112.1C278.37 117.367 288.15 119.624 299.436 119.624C310.345 119.624 320.125 116.991 329.154 112.1C338.182 106.834 345.329 99.6865 350.596 90.6583C355.862 81.6301 358.495 71.8495 358.495 60.5643L329.906 60.5643V60.9404Z" fill="url(#paint2_linear)"/>
<path d="M446.144 1.88092V69.5925C446.144 77.4922 444.263 83.1348 440.878 87.2728C437.492 91.4107 432.226 93.2916 425.831 93.2916C419.06 93.2916 414.169 91.4107 410.784 87.2728C407.398 83.1348 405.517 77.4922 405.517 69.5925V1.88092L377.304 1.88092V69.5925C377.304 80.5016 379.185 89.906 383.323 97.4295C387.461 104.953 393.104 110.596 400.251 114.357C407.398 118.119 415.674 120 425.078 120C434.483 120 442.759 118.119 450.282 114.357C457.806 110.596 463.448 104.953 467.962 97.4295C472.477 89.906 474.357 80.5016 474.357 69.5925V1.88092L446.144 1.88092Z" fill="url(#paint3_linear)"/>
<path d="M489.028 1.88092V24.4514L520.627 24.4514V118.871L549.216 118.871V24.4514L580.815 24.4514V1.88092L489.028 1.88092Z" fill="url(#paint4_linear)"/>
<path d="M660.564 24.4514L704.953 24.4514V1.88092L631.975 1.88092V118.871L704.953 118.871V96.301L660.564 96.301V24.4514Z" fill="url(#paint5_linear)"/>
<path d="M715.862 48.903V72.602L788.84 72.602V48.903L715.862 48.903Z" fill="url(#paint6_linear)"/>
<path d="M896.426 67.3354C893.04 62.4451 888.902 59.0595 884.012 56.4263C879.122 53.7931 873.103 51.536 865.58 48.9028C860.313 47.0219 856.551 45.5172 853.542 44.3887C850.909 43.2602 848.652 41.7555 846.771 39.4984C844.89 37.6175 844.137 35.3605 844.137 32.3511C844.137 28.9655 845.266 26.3323 847.147 24.4514C849.028 22.5705 852.037 21.8182 855.047 21.8182C858.808 21.8182 861.818 22.9467 864.075 25.2038C866.332 27.4608 867.837 30.4702 868.213 34.232L898.683 34.232C897.554 23.3229 893.416 15.047 885.517 8.65203C877.617 2.25705 868.589 0 855.423 0C847.523 0 840.376 1.5047 833.981 4.13793C827.586 6.77116 822.696 10.9091 819.31 15.7994C815.924 20.6896 814.043 27.0846 814.043 33.8558C814.043 41.3793 815.924 47.3981 818.934 52.2884C822.319 56.8025 826.457 60.5642 830.971 62.8213C835.862 65.0783 841.88 67.7116 849.028 70.3448C854.294 72.2257 858.056 73.7304 861.065 74.8589C864.075 75.9874 866.332 77.8683 868.213 79.7492C870.094 81.6301 871.222 84.2633 871.222 87.2727C871.222 90.6583 870.094 93.2915 868.213 95.1724C865.956 97.0533 863.322 98.1818 859.561 98.1818C855.423 98.1818 852.037 97.0533 849.028 94.42C846.395 91.7868 844.89 88.4012 844.137 83.8871H814.043C814.796 95.1724 819.31 104.201 827.962 110.596C836.614 116.991 847.147 120 860.313 120C868.965 120 876.489 118.495 882.507 115.486C888.526 112.476 893.417 108.339 896.426 103.072C899.435 97.8056 901.316 92.163 901.316 86.1442C901.692 78.2445 900.188 72.2257 896.426 67.3354Z" fill="url(#paint7_linear)"/>
<path d="M988.966 60.5644V69.2165C988.966 77.1162 987.085 82.7588 983.699 86.8967C980.314 91.0347 975.047 92.9155 968.652 92.9155C962.257 92.9155 956.991 91.0347 953.605 86.8967C950.219 82.7588 948.339 77.1162 948.339 69.2165V1.50488L920.125 1.50488V69.2165C920.125 80.1256 922.006 89.5299 926.144 97.0535C930.282 104.577 935.925 110.22 943.072 113.981C950.219 117.743 958.495 119.624 967.9 119.624C977.304 119.624 985.58 117.743 993.104 113.981C1000.63 110.22 1006.27 104.577 1010.78 97.0535C1014.92 89.5299 1017.18 80.1256 1017.18 69.2165V60.5644H988.966Z" fill="url(#paint8_linear)"/>
<path d="M1136.43 2.63293L1105.58 83.5106L1073.98 2.63293L1039.37 2.63293V118.871H1067.59V45.8931L1092.79 118.871H1117.24L1142.44 46.2693V118.871H1170.66V2.63293L1136.43 2.63293Z" fill="url(#paint9_linear)"/>
<path d="M1291.03 2.63293L1260.19 83.5106L1228.59 2.63293L1193.98 2.63293V118.871H1222.19V45.8931L1247.4 118.871H1271.85L1297.05 46.2693V118.871H1325.27V2.63293L1291.03 2.63293Z" fill="url(#paint10_linear)"/>
<path d="M1348.21 1.88074V118.871H1376.43V1.88074L1348.21 1.88074Z" fill="url(#paint11_linear)"/>
<path d="M1391.85 1.88074V24.4513L1423.45 24.4513V118.871L1452.04 118.871V24.4513L1484.01 24.4513V1.88074L1391.85 1.88074Z" fill="url(#paint12_linear)"/>
</g>
<defs>
<linearGradient id="paint0_linear" x1="58.8715" y1="2.63312" x2="57.0526" y2="119.291" gradientUnits="userSpaceOnUse">
<stop stop-color="#359D9A"/>
<stop offset="1" stop-color="#030D0F"/>
</linearGradient>
<linearGradient id="paint1_linear" x1="179.059" y1="1.88092" x2="176.734" y2="119.277" gradientUnits="userSpaceOnUse">
<stop stop-color="#359D9A"/>
<stop offset="1" stop-color="#030D0F"/>
</linearGradient>
<linearGradient id="paint2_linear" x1="299.248" y1="0" x2="297.334" y2="120.055" gradientUnits="userSpaceOnUse">
<stop stop-color="#359D9A"/>
<stop offset="1" stop-color="#030D0F"/>
</linearGradient>
<linearGradient id="paint3_linear" x1="425.831" y1="1.88092" x2="423.552" y2="120.412" gradientUnits="userSpaceOnUse">
<stop stop-color="#359D9A"/>
<stop offset="1" stop-color="#030D0F"/>
</linearGradient>
<linearGradient id="paint4_linear" x1="534.922" y1="1.88092" x2="532.559" y2="119.275" gradientUnits="userSpaceOnUse">
<stop stop-color="#359D9A"/>
<stop offset="1" stop-color="#030D0F"/>
</linearGradient>
<linearGradient id="paint5_linear" x1="668.464" y1="1.88092" x2="665.492" y2="119.248" gradientUnits="userSpaceOnUse">
<stop stop-color="#359D9A"/>
<stop offset="1" stop-color="#030D0F"/>
</linearGradient>
<linearGradient id="paint6_linear" x1="752.351" y1="48.903" x2="752.229" y2="72.6928" gradientUnits="userSpaceOnUse">
<stop stop-color="#359D9A"/>
<stop offset="1" stop-color="#030D0F"/>
</linearGradient>
<linearGradient id="paint7_linear" x1="857.708" y1="0" x2="855.095" y2="120.406" gradientUnits="userSpaceOnUse">
<stop stop-color="#359D9A"/>
<stop offset="1" stop-color="#030D0F"/>
</linearGradient>
<linearGradient id="paint8_linear" x1="968.652" y1="1.50488" x2="966.374" y2="120.036" gradientUnits="userSpaceOnUse">
<stop stop-color="#359D9A"/>
<stop offset="1" stop-color="#030D0F"/>
</linearGradient>
<linearGradient id="paint9_linear" x1="1105.02" y1="2.63293" x2="1103.38" y2="119.297" gradientUnits="userSpaceOnUse">
<stop stop-color="#359D9A"/>
<stop offset="1" stop-color="#030D0F"/>
</linearGradient>
<linearGradient id="paint10_linear" x1="1259.62" y1="2.63293" x2="1257.99" y2="119.297" gradientUnits="userSpaceOnUse">
<stop stop-color="#359D9A"/>
<stop offset="1" stop-color="#030D0F"/>
</linearGradient>
<linearGradient id="paint11_linear" x1="1362.32" y1="1.88074" x2="1354.66" y2="118.821" gradientUnits="userSpaceOnUse">
<stop stop-color="#359D9A"/>
<stop offset="1" stop-color="#030D0F"/>
</linearGradient>
<linearGradient id="paint12_linear" x1="1437.93" y1="1.88074" x2="1435.58" y2="119.275" gradientUnits="userSpaceOnUse">
<stop stop-color="#359D9A"/>
<stop offset="1" stop-color="#030D0F"/>
</linearGradient>
</defs>
</svg>
