<svg width="524" height="33" viewBox="0 0 524 33" fill="none" xmlns="http://www.w3.org/2000/svg">
<path d="M19.3 23.8C18.1 24.6 16.6 25 15 25C12.8 25 11 24.2 9.7 22.6C8.3 21 7.7 18.8 7.7 16.1C7.7 13.4 8.4 11.2 9.7 9.59999C11 8.09999 12.8 7.29999 15 7.29999C16.7 7.29999 18.1 7.69999 19.3 8.49999C20.5 9.29999 21.4 10.4 22 11.9H30C29.2 8.39999 27.6 5.49999 25 3.49999C22.4 1.39999 19.1 0.399994 15.2 0.399994C12.2 0.399994 9.5 1.09999 7.2 2.39999C4.9 3.69999 3.1 5.59999 1.9 7.99999C0.6 10.4 0 13.1 0 16.2C0 19.3 0.6 22 1.9 24.4C3.2 26.8 4.9 28.7 7.2 30C9.5 31.3 12.1 32 15.2 32C19.2 32 22.4 30.9 25 28.8C27.6 26.7 29.3 23.9 30 20.4H22C21.5 21.9 20.6 23 19.3 23.8Z" fill="white"/>
<path d="M52.9004 0.899994H44.2004L32.9004 31.8H40.8004L42.7004 26.1L44.6004 20.4L48.5004 8.99999L52.4004 20.4L54.3004 26.1L56.2004 31.8H64.2004L52.9004 0.899994Z" fill="white"/>
<path d="M93.8996 0.899994L85.6996 22.4L77.2996 0.899994H68.0996V31.8H75.5996V12.4L82.2996 31.8H88.7996L95.4996 12.5V31.8H103V0.899994H93.8996Z" fill="white"/>
<path d="M129.8 3.40001C127.9 1.60001 125 0.600006 121.3 0.600006H109.1V31.7H116.6V20.9H121.3C123.7 20.9 125.8 20.5 127.5 19.6C129.2 18.7 130.5 17.5 131.3 16C132.2 14.5 132.6 12.8 132.6 10.8C132.7 7.70001 131.7 5.30001 129.8 3.40001ZM120.5 14.9H116.7V6.80001H120.5C123.5 6.80001 125 8.20001 125 10.9C125 13.5 123.5 14.9 120.5 14.9Z" fill="white"/>
<path d="M155.4 16.2V18.7C155.4 20.8 154.9 22.3 154 23.4C153.1 24.5 151.7 25 150 25C148.2 25 146.9 24.5 146 23.4C145.1 22.3 144.6 20.7 144.6 18.7V0.699997H137.1V18.6C137.1 21.5 137.6 24 138.7 26C139.8 28 141.3 29.5 143.2 30.5C145.1 31.5 147.3 32 149.8 32C152.3 32 154.5 31.5 156.5 30.5C158.5 29.5 160 28 161.2 26C162.3 24 162.9 21.5 162.9 18.6V16.2H155.4Z" fill="white"/>
<path d="M189.8 18.1C188.9 16.8 187.8 15.9 186.5 15.2C185.2 14.5 183.6 13.9 181.6 13.2C180.2 12.7 179.2 12.3 178.4 12C177.7 11.7 177.1 11.2 176.6 10.7C176.1 10.2 175.9 9.6 175.9 8.8C175.9 7.9 176.2 7.2 176.7 6.7C177.2 6.2 178 6 178.8 6C179.8 6 180.7 6.3 181.2 6.9C181.8 7.5 182.2 8.3 182.3 9.3H190.4C190.1 6.4 189 4.2 186.9 2.5C184.9 0.8 182.1 0 178.6 0C176.5 0 174.6 0.4 172.9 1.1C171.2 1.8 169.9 2.9 169 4.2C168.1 5.5 167.6 7.1 167.6 9C167.6 11 168 12.6 169 13.9C169.9 15.2 171 16.1 172.2 16.7C173.4 17.3 175 18 177 18.7C178.3 19.2 179.4 19.6 180.2 19.9C181 20.2 181.6 20.7 182.1 21.2C182.6 21.7 182.9 22.4 182.9 23.2C182.9 24.1 182.6 24.8 182.1 25.3C181.6 25.8 180.8 26.1 179.8 26.1C178.7 26.1 177.8 25.8 177 25.1C176.3 24.4 175.9 23.5 175.7 22.3H167.7C167.9 25.3 169.1 27.7 171.4 29.4C173.7 31.1 176.5 31.9 180 31.9C182.3 31.9 184.3 31.5 185.9 30.7C187.5 29.9 188.8 28.8 189.6 27.4C190.4 26 190.9 24.5 190.9 22.9C191.2 21 190.7 19.4 189.8 18.1Z" fill="white"/>
<path d="M223.7 0.899994H215L203.6 31.8H211.5L213.4 26.1L215.3 20.4L219.2 8.99999L223.1 20.4L225 26.1L226.9 31.8H234.9L223.7 0.899994Z" fill="white"/>
<path d="M264.8 0.899994L256.6 22.4L248.2 0.899994H239V31.8H246.5V12.4L253.2 31.8H259.7L266.4 12.5V31.8H273.9V0.899994H264.8Z" fill="white"/>
<path d="M303.1 18.5C302 17.1 300.5 16.2 298.6 15.8C300.2 15.4 301.5 14.6 302.5 13.4C303.5 12.1 304 10.6 304 8.7C304 6.2 303.1 4.2 301.4 2.8C299.7 1.4 297.2 0.699997 294.1 0.699997H280V31.8H294.5C297.8 31.8 300.4 31 302.1 29.5C303.9 28 304.8 25.9 304.8 23.2C304.7 21.5 304.2 19.9 303.1 18.5ZM287.5 6.7H292.3C295 6.7 296.3 7.8 296.3 10C296.3 12.2 295 13.3 292.4 13.3H287.5V6.7ZM292.9 25.7H287.5V18.7H292.8C294.1 18.7 295.2 19 295.9 19.7C296.6 20.3 297 21.2 297 22.3C297 24.5 295.6 25.7 292.9 25.7Z" fill="white"/>
<path d="M327.4 0.899994H318.7L307.3 31.8H315.2L317.1 26.1L319 20.4L323 8.99999L326.9 20.4L328.8 26.1L330.7 31.8H338.7L327.4 0.899994Z" fill="white"/>
<path d="M363.6 18.1C362.7 16.8 361.6 15.9 360.3 15.2C359 14.5 357.4 13.9 355.4 13.2C354 12.7 353 12.3 352.2 12C351.5 11.7 350.9 11.2 350.4 10.7C349.9 10.2 349.7 9.6 349.7 8.8C349.7 7.9 350 7.2 350.5 6.7C351 6.2 351.8 6 352.6 6C353.6 6 354.4 6.3 355 6.9C355.6 7.5 356 8.3 356.1 9.3H364.2C363.9 6.4 362.8 4.2 360.8 2.5C358.8 0.8 356 0 352.5 0C350.4 0 348.5 0.4 346.8 1.1C345.1 1.8 343.8 2.9 342.9 4.2C342 5.5 341.5 7.1 341.5 9C341.5 11 341.9 12.6 342.8 13.9C343.7 15.2 344.8 16.1 346 16.7C347.3 17.3 348.9 18 350.8 18.7C352.1 19.2 353.2 19.6 354 19.9C354.8 20.2 355.4 20.7 355.9 21.2C356.4 21.7 356.7 22.4 356.7 23.2C356.7 24.1 356.4 24.8 355.9 25.3C355.3 25.8 354.6 26.1 353.6 26.1C352.5 26.1 351.6 25.8 350.8 25.1C350.1 24.4 349.7 23.5 349.5 22.3H341.5C341.7 25.3 342.9 27.7 345.2 29.4C347.5 31.1 350.3 31.9 353.8 31.9C356.1 31.9 358.1 31.5 359.7 30.7C361.3 29.9 362.6 28.8 363.4 27.4C364.2 26 364.7 24.5 364.7 22.9C364.9 21 364.5 19.4 363.6 18.1Z" fill="white"/>
<path d="M391 18.1C390.1 16.8 389 15.9 387.7 15.2C386.4 14.5 384.8 13.9 382.8 13.2C381.4 12.7 380.4 12.3 379.6 12C378.9 11.7 378.2 11.2 377.8 10.7C377.4 10.2 377.1 9.6 377.1 8.8C377.1 7.9 377.4 7.2 377.9 6.7C378.4 6.2 379.2 6 380 6C381 6 381.8 6.3 382.4 6.9C383 7.5 383.4 8.3 383.5 9.3H391.6C391.3 6.4 390.2 4.2 388.1 2.5C386.1 0.8 383.3 0 379.8 0C377.7 0 375.8 0.4 374.1 1.1C372.5 1.8 371.2 2.9 370.2 4.2C369.3 5.5 368.8 7.1 368.8 9C368.8 11 369.2 12.6 370.1 13.9C371 15.2 372.1 16.1 373.3 16.7C374.5 17.3 376.2 18 378.1 18.7C379.4 19.2 380.5 19.6 381.3 19.9C382.1 20.2 382.7 20.7 383.2 21.2C383.7 21.7 384 22.4 384 23.2C384 24.1 383.7 24.8 383.2 25.3C382.6 25.8 381.9 26.1 380.9 26.1C379.8 26.1 378.9 25.8 378.1 25.1C377.4 24.4 377 23.5 376.8 22.3H368.8C369 25.3 370.2 27.7 372.5 29.4C374.8 31.1 377.6 31.9 381.1 31.9C383.4 31.9 385.4 31.5 387 30.7C388.6 29.9 389.9 28.8 390.7 27.4C391.5 26 392 24.5 392 22.9C392.3 21 391.9 19.4 391 18.1Z" fill="white"/>
<path d="M415.2 0.899994H406.5L395.1 31.8H403L404.9 26.1H416.6L418.5 31.8H426.5L415.2 0.899994ZM407 20.4L410.9 8.99999L414.8 20.4H407Z" fill="white"/>
<path d="M456.4 8.1C455.1 5.8 453.2 3.9 450.8 2.6C448.4 1.3 445.5 0.699997 442.1 0.699997H430.3V31.8H442.1C445.4 31.8 448.3 31.1 450.7 29.8C453.2 28.5 455 26.6 456.3 24.3C457.6 21.9 458.3 19.2 458.3 16.2C458.4 13.1 457.7 10.4 456.4 8.1ZM448.3 22.7C446.7 24.3 444.4 25 441.5 25H437.9V7.3H441.5C444.4 7.3 446.7 8.1 448.3 9.6C449.9 11.1 450.7 13.3 450.7 16.2C450.8 19 450 21.2 448.3 22.7Z" fill="white"/>
<path d="M486.4 16.1C486.4 18.8 485.7 21 484.2 22.6C482.7 24.2 480.8 25 478.4 25C475.9 25 474 24.2 472.5 22.6C471.1 21 470.3 18.8 470.3 16.1C470.3 13.3 471 11.2 472.5 9.6C474 8 475.9 7.2 478.4 7.2V0.199997C475.5 0.199997 472.8 0.899997 470.5 2.3C468.1 3.7 466.2 5.6 464.8 8C463.4 10.4 462.7 13.1 462.7 16.2C462.7 19.2 463.4 22 464.8 24.4C466.2 26.8 468.1 28.7 470.5 30.1C472.9 31.5 475.5 32.1 478.4 32.1C481.3 32.1 483.9 31.4 486.3 30.1C488.7 28.7 490.6 26.8 492 24.4C493.4 22 494.1 19.2 494.1 16.2H486.4V16.1Z" fill="white"/>
<path d="M516 19.6C518.4 19 520.2 17.9 521.4 16.3C522.7 14.7 523.3 12.8 523.3 10.5C523.3 8.60001 522.9 6.90001 522 5.40001C521.2 3.90001 519.9 2.80001 518.2 1.90001C516.5 1.10001 514.4 0.600006 511.9 0.600006H499V31.7H506.5V20.1H508.2L514.9 31.9H523.2L516 19.6ZM514.6 13.9C513.9 14.6 512.8 14.9 511.3 14.9H506.6V7.00001H511.3C512.8 7.00001 513.9 7.40001 514.6 8.10001C515.3 8.80001 515.7 9.80001 515.7 11C515.7 12.3 515.3 13.3 514.6 13.9Z" fill="white"/>
</svg>
