<svg width="385" height="120" viewBox="0 0 385 120" fill="none" xmlns="http://www.w3.org/2000/svg">
<path d="M80.2102 85.08C78.3091 81.6456 75.4338 78.8504 71.9465 77.0462C68.36 75.1458 64.1039 74.1956 59.178 74.1957H41.8726V120H59.178C64.0607 120 68.306 119.028 71.914 117.085C75.4162 115.245 78.3008 112.418 80.2102 108.954C82.1057 105.26 83.0943 101.168 83.0943 97.0169C83.0943 92.8655 82.1057 88.7738 80.2102 85.08ZM68.2843 106.654C65.8862 108.943 62.5268 110.088 58.2059 110.088H52.9558V83.9138H58.2059C62.5269 83.9138 65.8863 85.0583 68.2843 87.3474C70.6824 89.6367 71.8815 92.8544 71.8816 97.0006C71.8816 101.147 70.6825 104.365 68.2843 106.654L68.2843 106.654Z" fill="white"/>
<path d="M90.6777 74.1957V120H101.761V74.1957H90.6777Z" fill="white"/>
<path d="M121.789 111.513V74.1957H110.705V120H136.566V111.513H121.789Z" fill="white"/>
<path d="M154.066 83.0066H171.501V74.1957H142.983V120H171.501V111.124H154.066V83.0066Z" fill="white"/>
<path d="M217.125 74.5197L205.004 106.2L192.625 74.5197H179.079V120H190.162V91.4939L200.079 120H209.671L219.523 91.5587V120H230.606V74.5197H217.125Z" fill="white"/>
<path d="M277.597 74.5197L265.476 106.2L253.097 74.5197H239.551V120H250.634V91.4939L260.55 120H270.143L279.995 91.5587V120H291.078V74.5197H277.597Z" fill="white"/>
<path d="M326.272 74.5197H313.504L296.717 120H308.383L311.235 111.642L314.087 103.22L319.855 86.3757L325.559 103.22L329.161 113.84L331.263 120H343.059L326.272 74.5197Z" fill="white"/>
<path d="M27.566 11.733C25.643 8.25947 22.7348 5.43236 19.2076 3.60772C15.5802 1.68558 11.2754 0.72447 6.29327 0.72438H0V10.5534H5.31004C9.68035 10.5534 13.0783 11.7111 15.5039 14.0266C17.9294 16.3417 19.1421 19.5962 19.142 23.79C19.142 27.9836 17.9293 31.2381 15.5039 33.5535C13.0781 35.8689 9.68017 37.0265 5.31004 37.0263H0V47.0522H6.29325C11.2317 47.0522 15.5256 46.0693 19.1748 44.1035C22.717 42.2427 25.6348 39.3832 27.566 35.8798C29.5592 32.1665 30.5637 28.0033 30.4831 23.79C30.5665 19.5869 29.5617 15.4335 27.566 11.733Z" fill="white"/>
<path d="M38.153 0.72438V47.0522H49.3628V0.72438H38.153Z" fill="white"/>
<path d="M89.6788 26.6731C88.422 24.881 86.76 23.4105 84.8278 22.3811C82.4813 21.2047 80.0488 20.2081 77.5513 19.3997C75.4972 18.6571 73.9238 18.0456 72.8313 17.565C71.8078 17.1321 70.8824 16.4968 70.1108 15.6973C69.3957 14.9487 69.0068 13.9473 69.0292 12.9126C68.9895 12.3414 69.0777 11.7685 69.2875 11.2358C69.4973 10.703 69.8233 10.2237 70.2418 9.83273C71.1364 9.10402 72.2685 8.73073 73.4214 8.78434C74.0872 8.7499 74.7531 8.85122 75.3786 9.08215C76.004 9.31308 76.5759 9.66878 77.0595 10.1276C78.0026 11.1225 78.5903 12.4011 78.7311 13.7645H90.8588C90.4654 9.48318 88.7501 6.11946 85.7128 3.67331C82.6754 1.22671 78.5783 0.00349848 73.4214 0.00366764C70.5112 -0.0505079 67.6212 0.496009 64.932 1.60905C62.6 2.56955 60.5883 4.17139 59.1304 6.22868C57.7033 8.3327 56.9699 10.83 57.0327 13.3712C57.0327 16.3417 57.6991 18.7552 59.0319 20.6118C60.2616 22.3785 61.9045 23.8181 63.8176 24.8056C66.1426 25.9367 68.5407 26.9109 70.9959 27.7217C73.0061 28.4206 74.5793 29.0212 75.7156 29.5236C76.782 29.9783 77.7503 30.6347 78.5674 31.4567C78.9462 31.8465 79.243 32.3083 79.4401 32.8148C79.6371 33.3213 79.7305 33.8621 79.7146 34.4054C79.7409 34.9878 79.6435 35.5693 79.4288 36.1114C79.2141 36.6536 78.887 37.1441 78.4689 37.5508C77.5318 38.3761 76.3073 38.7997 75.0603 38.7301C73.5494 38.786 72.0774 38.2445 70.9631 37.2231C69.8492 36.1265 69.1832 34.6551 69.0946 33.0949H57.1637C57.4696 37.638 59.3052 41.1764 62.6703 43.7102C66.0355 46.244 70.3184 47.5108 75.519 47.5108C78.9715 47.5108 81.9105 46.8992 84.3362 45.6761C86.6026 44.5957 88.5131 42.8906 89.8428 40.7615C91.0824 38.7296 91.7295 36.3919 91.7111 34.0121C91.7111 30.9981 91.0337 28.5518 89.6788 26.6731Z" fill="white"/>
<path d="M124.423 28.8354C127.963 27.962 130.661 26.3457 132.519 23.9865C134.408 21.5312 135.392 18.4992 135.305 15.4026C135.354 12.7559 134.698 10.1438 133.404 7.83406C132.068 5.56507 130.081 3.74998 127.701 2.62465C125.166 1.35789 122.063 0.72447 118.392 0.72438H99.2498V29.5564H113.016L123.046 47.0522H135.436L124.423 28.8354ZM122.325 20.4153C121.276 21.3983 119.637 21.8898 117.409 21.8897H110.46V10.1604H117.409C119.594 10.1604 121.222 10.6846 122.292 11.733C122.843 12.3049 123.27 12.9841 123.546 13.7281C123.822 14.4722 123.942 15.2653 123.898 16.0577C123.898 17.9799 123.374 19.4324 122.325 20.4153Z" fill="white"/>
<path d="M169.262 23.8881V27.4594C169.262 30.5174 168.574 32.8546 167.197 34.471C165.82 36.0873 163.821 36.8954 161.199 36.8954C158.577 36.8954 156.577 36.0873 155.201 34.471C153.824 32.8546 153.136 30.5175 153.136 27.4594V0.72438H141.992V27.4594C141.992 31.8279 142.8 35.5193 144.417 38.5336C145.899 41.4171 148.233 43.7739 151.103 45.2828C154.15 46.8173 157.526 47.5823 160.937 47.5108C164.402 47.5673 167.83 46.7921 170.934 45.25C173.881 43.7453 176.312 41.3952 177.915 38.5008C179.62 35.5084 180.472 31.828 180.472 27.4594V23.8881H169.262Z" fill="white"/>
<path d="M219.996 4.81982C217.111 2.08953 212.916 0.72438 207.41 0.72438H189.251V47.0522H200.461V30.8013H207.41C211.037 30.8013 214.118 30.157 216.653 28.8683C219.05 27.7077 221.046 25.86 222.389 23.5607C223.704 21.2105 224.371 18.5536 224.323 15.8612C224.323 11.2307 222.88 7.5502 219.996 4.81982ZM206.164 21.8242H200.461V9.76714H206.164C210.665 9.76714 212.916 11.7985 212.916 15.8612C212.916 19.8364 210.665 21.8241 206.164 21.8242Z" fill="white"/>
<path d="M228.125 0.72438V9.63622H240.58V47.0522H251.856V9.63622H264.442V0.72438H228.125Z" fill="white"/>
<path d="M270.473 0.72438V47.0522H281.683V0.72438H270.473Z" fill="white"/>
<path d="M324.752 23.7248C324.752 27.7875 323.66 31.0202 321.474 33.423C319.289 35.8256 316.383 37.0268 312.756 37.0267C309.085 37.0267 306.167 35.8255 304.004 33.423C301.841 31.0201 300.759 27.7874 300.759 23.7248C300.759 19.6185 301.841 16.3749 304.004 13.9942C306.167 11.6134 309.085 10.423 312.756 10.4229V0.0040867C308.611 -0.0431323 304.529 1.00823 300.923 3.05114C297.391 5.05243 294.469 7.97381 292.466 11.5041C290.359 15.2283 289.285 19.4469 289.353 23.7248C289.287 28.0128 290.362 32.2413 292.466 35.9784C294.461 39.5228 297.385 42.4566 300.923 44.4641C304.546 46.4629 308.617 47.5112 312.756 47.5112C316.894 47.5112 320.965 46.4629 324.588 44.4641C328.126 42.4565 331.05 39.5227 333.045 35.9784C335.15 32.2413 336.224 28.0128 336.159 23.7248H324.752Z" fill="white"/>
<path d="M373.722 0.72438V29.4252L354.973 0.72438H343.763V47.0522H354.973V18.6134L373.722 47.0522H384.931V0.72438H373.722Z" fill="white"/>
</svg>
