<svg width="74" height="60" viewBox="0 0 74 60" fill="none" xmlns="http://www.w3.org/2000/svg">
<path d="M0 39.823C0 52.8319 7.69912 60 16.4602 60C24.4248 60 30.7965 53.6283 30.7965 45.6637C30.7965 37.9646 25.2212 32.1239 17.7876 32.1239C16.4602 32.1239 14.6018 32.6549 14.3363 32.6549C15.3982 24.1593 22.8319 13.5398 31.3274 7.96461L21.5044 0C9.29204 8.49558 0 23.6283 0 39.823ZM42.4779 39.823C42.4779 52.8319 50.177 60 58.9381 60C66.9027 60 73.2743 53.6283 73.2743 45.6637C73.2743 37.9646 67.6991 32.1239 60.2655 32.1239C59.2035 32.1239 57.3451 32.6549 56.8142 32.6549C57.8761 24.1593 65.3097 13.5398 73.8053 7.96461L63.9823 0C51.7699 8.49558 42.4779 23.6283 42.4779 39.823Z" fill="#359D9A" fill-opacity="0.05"/>
</svg>
