<svg width="199" height="50" viewBox="0 0 199 50" fill="none" xmlns="http://www.w3.org/2000/svg">
<path d="M0.00541172 24.0688C-0.249172 13.3216 8.49959 1.83665 21.7994 0.210344C29.7554 -0.762518 36.7492 1.64426 42.5177 7.32745C43.5167 8.31172 43.4888 8.49965 42.1639 9.02506C36.1198 11.4218 30.0729 13.8115 24.0233 16.1943C22.6757 16.7269 21.327 17.2572 19.9878 17.8105C19.2463 18.1169 18.7907 18.612 19.2023 19.4647C19.5778 20.2425 20.1587 20.3735 20.963 20.0539C28.4836 17.0662 36.0095 14.0919 43.5409 11.1312C45.025 10.5468 45.4652 10.715 46.3075 12.1059C49.148 16.7966 50.4824 21.9173 49.7751 27.3293C48.7376 35.2687 45.1704 41.8239 38.1694 46.1606C28.9158 51.8927 17.5079 51.1546 9.04798 44.2935C8.7351 44.0398 8.20566 43.8229 8.29187 43.3685C8.36598 42.9779 8.91247 42.9749 9.26271 42.836C17.3749 39.619 25.4882 36.4049 33.6027 33.1937C34.6165 32.7918 34.9621 32.1843 34.6052 31.4308C34.1857 30.5449 33.4544 30.6114 32.7045 30.9067C26.1943 33.47 19.6861 36.0384 13.1799 38.6118C11.1427 39.4179 9.11101 40.2377 7.08477 41.0713C6.41022 41.3473 5.93457 41.2602 5.44178 40.6332C1.81446 36.0184 -0.0608018 30.8145 0.00541172 24.0688Z" fill="url(#paint0_linear)"/>
<path d="M64.2277 8.78024V11.8545H69.1925V14.5342H64.2277V17.7957H69.8157V20.6415H60.6756V5.95517H69.8157V8.78024H64.2277Z" fill="white"/>
<path d="M80.3056 11.8753V14.8252H71.1449V11.8753H80.3056Z" fill="white"/>
<path d="M93.9016 18.6471C93.4805 19.3223 92.8751 19.863 92.1567 20.2053C91.2839 20.6156 90.3268 20.8148 89.3628 20.7868C87.7146 20.7868 86.3573 20.3852 85.2911 19.582C84.2247 18.779 83.643 17.6573 83.5463 16.2169H87.327C87.3548 16.7116 87.5659 17.1782 87.9191 17.5256C88.2722 17.8495 88.7387 18.0211 89.2174 18.0033C89.6125 18.0253 90.0005 17.8911 90.2974 17.6295C90.4298 17.5005 90.5334 17.345 90.6014 17.1731C90.6695 17.0012 90.7003 16.8169 90.692 16.6323C90.697 16.4601 90.6675 16.2887 90.6051 16.1281C90.5427 15.9675 90.4488 15.8211 90.3288 15.6975C90.0698 15.437 89.7629 15.229 89.4251 15.0848C89.0648 14.9256 88.5662 14.7352 87.9293 14.5134C87.1513 14.2565 86.3914 13.9478 85.6548 13.5892C85.0485 13.2762 84.5278 12.8198 84.1382 12.2597C83.6895 11.5808 83.4677 10.7771 83.5047 9.96424C83.4848 9.1586 83.7172 8.36689 84.1696 7.69994C84.6316 7.04781 85.269 6.54003 86.0079 6.23548C86.86 5.88261 87.7758 5.70939 88.698 5.72664C90.3319 5.72664 91.6303 6.11432 92.5929 6.8897C93.0725 7.28001 93.4653 7.76618 93.7461 8.31708C94.0269 8.86797 94.1896 9.47145 94.2237 10.0888H90.3805C90.3357 9.6567 90.1496 9.25142 89.8509 8.93593C89.6976 8.79052 89.5164 8.6778 89.3182 8.60461C89.12 8.53141 88.909 8.49928 88.698 8.51016C88.3327 8.49318 87.9741 8.6115 87.6907 8.84247C87.558 8.96637 87.4546 9.11831 87.3881 9.28722C87.3216 9.45613 87.2936 9.63775 87.3062 9.81885C87.299 10.1469 87.4224 10.4644 87.6491 10.7015C87.8935 10.9551 88.1867 11.1565 88.511 11.2937C88.8571 11.4461 89.3556 11.6399 90.0066 11.8752C90.798 12.1317 91.5688 12.4477 92.3125 12.8205C92.9247 13.1469 93.4513 13.613 93.8496 14.1811C94.3057 14.8686 94.5313 15.6834 94.4937 16.5077C94.4995 17.2621 94.2944 18.0031 93.9016 18.6471Z" fill="white"/>
<path d="M100.331 5.95517V14.4304C100.331 15.4 100.549 16.1409 100.985 16.6531C101.421 17.1656 102.055 17.4218 102.886 17.4218C103.717 17.4218 104.35 17.1656 104.786 16.6531C105.223 16.1409 105.441 15.4 105.441 14.4304V5.95517H108.993V14.4304C108.993 15.8154 108.723 16.9821 108.183 17.9307C107.675 18.8482 106.905 19.5933 105.971 20.0704C104.987 20.5592 103.901 20.805 102.803 20.7869C101.722 20.8093 100.652 20.5668 99.6867 20.0807C98.7779 19.6016 98.0382 18.8546 97.568 17.9411C97.0252 16.8525 96.7611 15.6462 96.7994 14.4304V5.95517H100.331Z" fill="white"/>
<path d="M128.291 6.05899V20.6415H124.739V11.5222L121.581 20.6415H118.507L115.328 11.5014V20.6415H111.776V6.05899H116.118L120.085 16.217L123.97 6.05899H128.291Z" fill="white"/>
<path d="M147.672 6.05899V20.6415H144.12V11.5222L140.962 20.6415H137.888L134.709 11.5014V20.6415H131.157V6.05899H135.499L139.466 16.217L143.351 6.05899H147.672Z" fill="white"/>
<path d="M154.09 5.95517V20.6415H150.538V5.95517H154.09Z" fill="white"/>
<path d="M167.509 5.95517V8.78024H163.521V20.6415H159.948V8.78024H156.001V5.95517H167.509Z" fill="white"/>
<path d="M172.266 5.60183C172.266 6.55744 172.02 7.3226 171.529 7.89729C171.037 8.47206 170.32 8.75944 169.379 8.75944V7.42998C170.099 7.42998 170.459 6.96605 170.459 6.03821V5.70567H169.15V3.15085H171.871C172.134 3.94113 172.268 4.76887 172.266 5.60183Z" fill="white"/>
<path d="M180.928 10.3174C180.928 9.18206 180.437 8.6143 179.453 8.61406C179.218 8.5962 178.981 8.64051 178.768 8.74256C178.555 8.8446 178.372 9.00081 178.238 9.19559C177.982 9.58344 177.84 10.1859 177.812 11.003H174.343C174.426 9.21636 174.967 7.87297 175.964 6.97282C176.961 6.073 178.221 5.62292 179.744 5.62259C181.337 5.62259 182.538 6.0242 183.348 6.82743C184.158 7.6309 184.563 8.67652 184.564 9.96427C184.564 11.3908 184.016 12.786 182.922 14.15C181.822 15.5197 180.494 16.6898 178.997 17.6087H184.792V20.4753H174.323V17.8164C178.727 14.6728 180.928 12.1731 180.928 10.3174Z" fill="white"/>
<path d="M186.661 13.1424C186.661 10.8574 187.125 9.04668 188.053 7.71038C188.981 6.37416 190.463 5.70593 192.499 5.70569C194.521 5.70569 195.999 6.37392 196.934 7.71038C197.868 9.04708 198.336 10.8578 198.336 13.1424C198.336 15.4415 197.868 17.2626 196.934 18.6056C195.999 19.9491 194.521 20.6208 192.499 20.6207C190.463 20.6207 188.981 19.949 188.053 18.6056C187.125 17.2627 186.661 15.4416 186.661 13.1424ZM194.805 13.1424C194.805 11.827 194.649 10.8195 194.337 10.1201C194.025 9.42092 193.413 9.07123 192.499 9.07099C191.571 9.07099 190.947 9.42414 190.629 10.1305C190.31 10.8366 190.151 11.8406 190.151 13.1424C190.151 14.4584 190.311 15.4728 190.629 16.1858C190.947 16.8992 191.571 17.2557 192.499 17.2554C193.413 17.2554 194.025 16.8989 194.337 16.1858C194.649 15.4727 194.804 14.4582 194.805 13.1424Z" fill="white"/>
<path d="M60.5889 27.9225H198.751" stroke="url(#paint1_linear)" stroke-width="3" stroke-miterlimit="10"/>
<path d="M149.542 37.4717C149.186 36.8284 148.648 36.3049 147.995 35.967C147.254 35.5951 146.433 35.4117 145.604 35.4331H142.364V44.0119H145.604C146.432 44.0321 147.252 43.8444 147.989 43.4659C148.644 43.1213 149.184 42.5918 149.542 41.943C149.897 41.2512 150.082 40.4849 150.082 39.7073C150.082 38.9298 149.897 38.1635 149.542 37.4717V37.4717ZM147.309 41.5123C146.86 41.941 146.231 42.1554 145.422 42.1554H144.439V37.2532H145.422C146.231 37.2532 146.86 37.4676 147.309 37.8963C147.743 38.3985 147.983 39.0403 147.983 39.7043C147.983 40.3683 147.743 41.0101 147.309 41.5123Z" fill="white"/>
<path d="M151.501 35.4331V44.0119H153.576V35.4331H151.501Z" fill="white"/>
<path d="M157.326 42.4224V35.4331H155.251V44.0119H160.092V42.4224H157.326Z" fill="white"/>
<path d="M163.368 37.0833H166.633V35.4331H161.294V44.0119H166.633V42.3495H163.368V37.0833Z" fill="white"/>
<path d="M175.174 35.4937L172.905 41.4273L170.587 35.4937H168.051V44.0118H170.126V38.6728L171.983 44.0118H173.779L175.623 38.685V44.0118H177.698V35.4937L175.174 35.4937Z" fill="white"/>
<path d="M186.495 35.4937L184.226 41.4273L181.908 35.4937H179.372V44.0118H181.447V38.6728L183.304 44.0118H185.1L186.944 38.685V44.0118H189.019V35.4937L186.495 35.4937Z" fill="white"/>
<path d="M195.608 35.4937H193.217L190.075 44.0118H192.259L192.793 42.4465L193.327 40.8691L194.407 37.7142L195.474 40.8691L196.149 42.8581L196.542 44.0118H198.751L195.608 35.4937Z" fill="white"/>
<path d="M66.0343 37.4761C65.6514 36.8204 65.0834 36.2923 64.4016 35.9581C63.6151 35.5818 62.7506 35.3972 61.879 35.4195H60.6497V37.2557H61.6869C62.5406 37.2557 63.2043 37.472 63.6781 37.9046C64.1351 38.4021 64.3888 39.053 64.3888 39.7286C64.3888 40.4042 64.1351 41.0551 63.6781 41.5526C63.2043 41.9852 62.5406 42.2015 61.6869 42.2014H60.6497V44.0745H61.879C62.7498 44.0955 63.6128 43.9065 64.3952 43.5236C65.0799 43.1827 65.6498 42.6485 66.0342 41.9872C66.4082 41.2942 66.604 40.5191 66.604 39.7317C66.604 38.9442 66.4082 38.1691 66.0342 37.4761H66.0343Z" fill="white"/>
<path d="M68.1022 35.4193V44.0743H70.2919V35.4193H68.1022Z" fill="white"/>
<path d="M78.1669 40.2672C77.9181 39.9296 77.5935 39.6549 77.2194 39.4654C76.7599 39.2451 76.2848 39.059 75.798 38.9084C75.3968 38.7697 75.0895 38.6554 74.8761 38.5656C74.6775 38.4857 74.4969 38.3671 74.3446 38.2167C74.2761 38.1488 74.222 38.0677 74.1857 37.9782C74.1493 37.8888 74.1315 37.793 74.1334 37.6965C74.1261 37.5888 74.1437 37.4809 74.1847 37.3812C74.2258 37.2814 74.2893 37.1924 74.3702 37.1211C74.5474 36.9841 74.7676 36.9147 74.9913 36.9252C75.2521 36.9114 75.5077 37.0017 75.7019 37.1762C75.8847 37.3591 75.9998 37.5987 76.0285 37.8556H78.3974C78.3742 37.4878 78.2725 37.1293 78.0991 36.8041C77.9257 36.4789 77.6847 36.1946 77.3922 35.9704C76.7989 35.5133 75.9986 35.2848 74.9913 35.2848C74.4242 35.2744 73.8606 35.3764 73.3331 35.5847C72.882 35.7607 72.4894 36.0597 72.1998 36.4478C71.9358 36.8453 71.7934 37.3112 71.79 37.7884C71.7866 38.2657 71.9223 38.7335 72.1806 39.1348C72.4242 39.4678 72.745 39.7366 73.1154 39.9183C73.5705 40.13 74.0389 40.312 74.5175 40.4631C74.9102 40.5937 75.2175 40.7059 75.4395 40.7997C75.6463 40.8837 75.8354 41.0063 75.9965 41.1609C76.0699 41.2322 76.1277 41.318 76.1662 41.4128C76.2048 41.5077 76.2233 41.6094 76.2206 41.7118C76.2253 41.8215 76.2059 41.931 76.1639 42.0325C76.1219 42.134 76.0582 42.2251 75.9773 42.2994C75.7913 42.4546 75.5533 42.5334 75.3114 42.5197C75.1656 42.5279 75.0196 42.507 74.8819 42.4584C74.7442 42.4098 74.6175 42.3343 74.5092 42.2364C74.4008 42.1385 74.3129 42.0201 74.2506 41.888C74.1883 41.7559 74.1528 41.6128 74.1461 41.4669H71.8156C71.8301 41.858 71.9347 42.2404 72.1213 42.5844C72.3078 42.9284 72.5714 43.2247 72.8913 43.4501C73.631 43.9478 74.5102 44.1966 75.4011 44.1601C75.9936 44.1769 76.5824 44.0598 77.1233 43.8174C77.5616 43.6194 77.9346 43.301 78.199 42.8992C78.4401 42.5231 78.5669 42.0851 78.5639 41.6383C78.5863 41.15 78.4467 40.668 78.1669 40.2672Z" fill="white"/>
<path d="M84.9537 40.6713C85.567 40.5537 86.1235 40.2349 86.5351 39.7654C86.902 39.3129 87.0951 38.7441 87.0793 38.1617C87.0883 37.6652 86.9598 37.1758 86.708 36.7478C86.4421 36.3194 86.0541 35.9804 85.5939 35.7745C85.0219 35.5222 84.4006 35.4009 83.7756 35.4195H80.0366V40.806H82.7256L84.6848 44.0745H87.1049L84.9537 40.6713ZM84.544 39.0982C84.2682 39.3042 83.9266 39.4022 83.5836 39.3737H82.2262V37.1824H83.5836C83.9274 37.1552 84.2686 37.2602 84.5375 37.4762C84.6442 37.5809 84.7273 37.7071 84.7814 37.8464C84.8355 37.9857 84.8593 38.1349 84.8513 38.2841C84.8621 38.434 84.8402 38.5844 84.7871 38.7249C84.7341 38.8655 84.6511 38.9929 84.544 39.0982Z" fill="white"/>
<path d="M93.7123 39.7468V40.414C93.7446 40.8855 93.6009 41.3523 93.3089 41.7239C92.9882 42.0154 92.5705 42.1769 92.1372 42.1769C91.7039 42.1769 91.2862 42.0154 90.9656 41.7239C90.6736 41.3523 90.5298 40.8855 90.5622 40.414V35.4193H88.3854V40.414C88.3619 41.133 88.5251 41.8458 88.8592 42.4829C89.1546 43.0274 89.6107 43.4677 90.1652 43.7438C90.764 44.0313 91.422 44.1739 92.086 44.16C92.7607 44.1711 93.4289 44.0266 94.0388 43.7377C94.6085 43.4621 95.0832 43.0232 95.4025 42.4768C95.7532 41.8473 95.9259 41.1342 95.9019 40.414V39.7468H93.7123Z" fill="white"/>
<path d="M103.622 36.1845C103.059 35.6744 102.239 35.4193 101.164 35.4193H97.6167V44.0743H99.8063V41.0383H101.164C101.785 41.0564 102.403 40.9329 102.969 40.6772C103.433 40.4648 103.822 40.1197 104.09 39.6856C104.346 39.2501 104.476 38.7523 104.467 38.2472C104.485 37.8626 104.419 37.4787 104.273 37.1225C104.127 36.7662 103.905 36.446 103.622 36.1845ZM100.92 39.3612H99.8063V37.1087H100.92C101.8 37.1087 102.239 37.4882 102.239 38.2472C102.239 38.9899 101.8 39.3612 100.92 39.3612V39.3612Z" fill="white"/>
<path d="M105.21 35.4193V37.0843H107.643V44.0743H109.846V37.0843H112.304V35.4193H105.21Z" fill="white"/>
<path d="M113.482 35.4193V44.0743H115.672V35.4193H113.482Z" fill="white"/>
<path d="M124.085 39.7162C124.119 40.381 123.889 41.0323 123.444 41.528C122.982 41.9606 122.372 42.2013 121.738 42.2013C121.105 42.2013 120.495 41.9606 120.032 41.528C119.621 41.0121 119.398 40.3724 119.398 39.7132C119.398 39.054 119.621 38.4142 120.032 37.8983C120.254 37.6731 120.521 37.4972 120.815 37.3822C121.11 37.2672 121.425 37.2158 121.741 37.2311V35.2847C120.935 35.275 120.14 35.4709 119.43 35.8539C118.747 36.2214 118.176 36.7671 117.778 37.4331C117.38 38.1291 117.17 38.9172 117.17 39.7193C117.17 40.5213 117.38 41.3094 117.778 42.0054C118.175 42.6741 118.746 43.2221 119.43 43.5907C120.143 43.9646 120.936 44.16 121.741 44.16C122.546 44.16 123.34 43.9646 124.053 43.5907C124.737 43.2221 125.308 42.6741 125.704 42.0054C126.114 41.3129 126.325 40.5207 126.313 39.7162L124.085 39.7162Z" fill="white"/>
<path d="M133.65 35.4193V40.7813L129.988 35.4193H127.798V44.0743H129.988V38.7614L133.65 44.0743H135.84V35.4193H133.65Z" fill="white"/>
<defs>
<linearGradient id="paint0_linear" x1="3.59382" y1="10.2094" x2="45.4015" y2="39.2052" gradientUnits="userSpaceOnUse">
<stop stop-color="#0F9DB1"/>
<stop offset="1" stop-color="#1883C6"/>
</linearGradient>
<linearGradient id="paint1_linear" x1="-nan" y1="-nan" x2="-nan" y2="-nan" gradientUnits="userSpaceOnUse">
<stop stop-color="#0F9DB1"/>
<stop offset="0.37331" stop-color="#1392BA"/>
<stop offset="1" stop-color="#1883C6"/>
</linearGradient>
</defs>
</svg>
