<svg width="165" height="32" viewBox="0 0 165 32" fill="none" xmlns="http://www.w3.org/2000/svg">
<path d="M7.5 6.59998V13.1H18V18.8H7.5V25.7H19.3V31.7H0V0.599976H19.4V6.59998H7.5Z" fill="white"/>
<path d="M40.5 16L37.9 23.9L30.3 0.599976H22.2L33 31.7H42.7L48.1 16.1H40.5V16Z" fill="white"/>
<path d="M64.9 6.59998H76.7V0.599976H57.4V31.7H76.8V25.7H64.9V6.59998Z" fill="white"/>
<path d="M109.5 31.7H102L89.4 12.6V31.7H81.9V0.599976H89.4L102 19.9V0.599976H109.5V31.7Z" fill="white"/>
<path d="M137.9 0.599976V6.59998H129.5V31.7H121.9V6.59998H113.5V0.599976H137.9Z" fill="white"/>
<path d="M163.1 27.5C162.3 28.9 161 30 159.4 30.8C157.8 31.6 155.8 32 153.5 32C150 32 147.1 31.1 144.9 29.4C142.6 27.7 141.4 25.3 141.2 22.3H149.2C149.3 23.5 149.7 24.4 150.5 25.1C151.2 25.8 152.1 26.1 153.3 26.1C154.3 26.1 155 25.8 155.6 25.3C156.2 24.8 156.4 24.1 156.4 23.2C156.4 22.4 156.1 21.7 155.6 21.2C155.1 20.7 154.4 20.2 153.7 19.9C152.9 19.6 151.9 19.2 150.5 18.7C148.5 18 146.9 17.4 145.7 16.7C144.5 16.1 143.4 15.1 142.5 13.9C141.6 12.7 141.2 11 141.2 9C141.2 7.2 141.7 5.6 142.6 4.2C143.5 2.9 144.8 1.8 146.5 1.1C148.2 0.4 150.1 0 152.2 0C155.7 0 158.4 0.8 160.5 2.5C162.5 4.1 163.7 6.4 164 9.3H155.9C155.8 8.3 155.4 7.5 154.8 6.9C154.2 6.3 153.4 6 152.4 6C151.5 6 150.8 6.2 150.3 6.7C149.8 7.2 149.5 7.9 149.5 8.8C149.5 9.5 149.7 10.2 150.2 10.7C150.7 11.2 151.3 11.6 152 12C152.7 12.3 153.8 12.7 155.2 13.2C157.2 13.9 158.8 14.5 160.1 15.2C161.4 15.9 162.4 16.8 163.4 18.1C164.3 19.4 164.8 21 164.8 23C164.3 24.6 163.9 26.1 163.1 27.5Z" fill="white"/>
</svg>
