<svg width="29" height="28" viewBox="0 0 29 28" fill="none" xmlns="http://www.w3.org/2000/svg">
<path d="M28.2058 22.2165C28.2058 25.3854 25.6081 27.9364 22.4171 27.9364H5.78868C2.58165 27.9364 0 25.3696 0 22.2165V5.7854C0 2.61644 2.59769 0.0654297 5.78868 0.0654297H22.4171C25.6241 0.0654297 28.2058 2.63229 28.2058 5.7854V22.2165Z" fill="white" fill-opacity="0.87"/>
<path d="M21.6954 7.71765H24.2931V3.67722H21.054H20.3805C20.3805 3.67722 17.9272 3.61385 16.3718 5.62613C16.3718 5.62613 15.3134 6.62435 15.2974 9.52395V12.5503H11.449V16.8442H15.2974V27.9356H19.7391V16.8442H23.5715L24.1007 12.5503H19.7391V9.52395C19.7552 9.19121 19.8995 7.68596 21.6954 7.71765Z" fill="#010C0F"/>
</svg>
