<svg width="370" height="120" viewBox="0 0 370 120" fill="none" xmlns="http://www.w3.org/2000/svg">
<path opacity="0.15" d="M65.8378 21.0811V1.62162H0V102.486H24.3243V61.6216H56.4324V43.1351H24.3243V21.0811H65.8378ZM139.135 2.27027H110.919L73.9459 102.486H99.5676L105.73 84L111.892 65.5135L124.541 28.5405L137.189 65.5135L143.351 84L149.514 102.486H175.459L139.135 2.27027ZM266.919 93.4054C273.081 88.8649 277.946 82.7027 281.838 75.5676C285.405 68.4324 287.027 60.3243 287.027 51.5676C287.027 41.8378 284.757 32.7568 280.216 24.973C275.676 17.1892 269.513 11.027 261.73 6.48649C253.946 1.94595 245.189 0 235.784 0C226.378 0 217.622 2.27027 210.162 6.48649C202.378 11.027 196.216 17.1892 191.676 24.973C187.135 32.7568 184.865 41.8378 184.865 51.5676C184.865 61.2973 187.135 70.3784 191.676 78.1622C196.216 85.9459 202.378 92.1081 210.162 96.6486C217.946 101.189 226.378 103.135 235.784 103.135C239.351 103.135 242.919 102.811 246.811 102.162L259.784 120H288.973L266.919 93.4054ZM255.243 72.6486C250.378 77.8378 244.216 80.4324 236.432 80.4324C228.324 80.4324 222.162 77.8378 217.297 72.6486C212.757 67.4595 210.162 60.3243 210.162 51.5676C210.162 42.4865 212.432 35.6757 217.297 30.4865C221.838 25.2973 228.324 22.7027 236.108 22.7027C244.216 22.7027 250.378 25.2973 255.243 30.4865C260.108 35.6757 262.378 42.8108 262.378 51.5676C262.378 60.3243 259.784 67.4595 255.243 72.6486ZM365.189 66.4865C362.27 63.2432 359.027 60.6486 355.135 59.3513C351.243 58.0541 346.378 56.4324 340.216 55.1351C334.703 53.8378 330.486 52.5405 327.892 51.5676C325.297 50.2703 324 48.3243 324 46.0541C324 43.7838 324.649 42.1622 326.27 40.8649C327.568 39.5676 329.838 38.9189 332.432 38.9189C336 38.9189 338.919 39.8919 341.189 41.8378C343.459 43.7838 345.081 46.3784 345.73 49.2973H368.432C366.811 41.1892 363.243 34.3784 357.081 29.1892C350.919 24 342.811 21.7297 332.757 21.7297C322.703 21.7297 315.243 24 309.73 28.2162C304.216 32.7568 301.622 38.2703 301.622 45.4054C301.622 50.9189 302.919 55.1351 305.838 58.3784C308.757 61.6216 312 63.8919 315.568 65.1892C319.459 66.4865 324.324 68.1081 330.162 69.0811C336 70.3784 340.216 71.6757 342.811 72.973C345.405 74.2703 346.703 76.2162 346.703 78.8108C346.703 80.7568 346.054 82.7027 344.432 84C343.135 85.2973 340.865 85.9459 338.27 85.9459C334.378 85.9459 331.135 84.973 328.541 83.3514C325.946 81.4054 324.649 78.8108 324.324 75.5676H300.649C301.946 84.3243 306.162 91.1351 312.324 96C318.811 100.865 327.243 103.135 338.27 103.135C344.757 103.135 350.27 102.162 354.811 100.216C359.351 98.2703 362.919 95.3513 365.513 92.1081C368.108 88.5405 369.405 84.6487 369.405 80.1081C369.405 74.2703 367.784 70.0541 365.189 66.4865Z" fill="url(#paint0_linear)"/>
<defs>
<linearGradient id="paint0_linear" x1="184.703" y1="0" x2="184.085" y2="120.46" gradientUnits="userSpaceOnUse">
<stop stop-color="#359D9A"/>
<stop offset="1" stop-color="#030D0F"/>
</linearGradient>
</defs>
</svg>
