<svg width="240" height="131" viewBox="0 0 240 131" fill="none" xmlns="http://www.w3.org/2000/svg">
<path d="M121.407 44.2346V49.1396H97.7818V17.6396H120.777V22.5446H103.632V30.7346H118.842V35.5496H103.632V44.2346H121.407ZM127.094 34.2896H139.469V38.9696H127.094V34.2896ZM162.764 49.5896C159.584 49.5896 156.704 48.8996 154.124 47.5196C151.574 46.1096 149.564 44.1746 148.094 41.7146C146.654 39.2546 145.934 36.4796 145.934 33.3896C145.934 30.2996 146.669 27.5246 148.139 25.0646C149.609 22.6046 151.619 20.6846 154.169 19.3046C156.749 17.8946 159.629 17.1896 162.809 17.1896C165.389 17.1896 167.744 17.6396 169.874 18.5396C172.004 19.4396 173.804 20.7446 175.274 22.4546L171.494 26.0096C169.214 23.5496 166.409 22.3196 163.079 22.3196C160.919 22.3196 158.984 22.7996 157.274 23.7596C155.564 24.6896 154.229 25.9946 153.269 27.6746C152.309 29.3546 151.829 31.2596 151.829 33.3896C151.829 35.5196 152.309 37.4246 153.269 39.1046C154.229 40.7846 155.564 42.1046 157.274 43.0646C158.984 43.9946 160.919 44.4596 163.079 44.4596C166.409 44.4596 169.214 43.2146 171.494 40.7246L175.274 44.3246C173.804 46.0346 171.989 47.3396 169.829 48.2396C167.699 49.1396 165.344 49.5896 162.764 49.5896ZM203.85 37.2596C203.85 37.6496 203.82 38.2046 203.76 38.9246H184.905C185.235 40.6946 186.09 42.1046 187.47 43.1546C188.88 44.1746 190.62 44.6846 192.69 44.6846C195.33 44.6846 197.505 43.8146 199.215 42.0746L202.23 45.5396C201.15 46.8296 199.785 47.8046 198.135 48.4646C196.485 49.1246 194.625 49.4546 192.555 49.4546C189.915 49.4546 187.59 48.9296 185.58 47.8796C183.57 46.8296 182.01 45.3746 180.9 43.5146C179.82 41.6246 179.28 39.4946 179.28 37.1246C179.28 34.7846 179.805 32.6846 180.855 30.8246C181.935 28.9346 183.42 27.4646 185.31 26.4146C187.2 25.3646 189.33 24.8396 191.7 24.8396C194.04 24.8396 196.125 25.3646 197.955 26.4146C199.815 27.4346 201.255 28.8896 202.275 30.7796C203.325 32.6396 203.85 34.7996 203.85 37.2596ZM191.7 29.3396C189.9 29.3396 188.37 29.8796 187.11 30.9596C185.88 32.0096 185.13 33.4196 184.86 35.1896H198.495C198.255 33.4496 197.52 32.0396 196.29 30.9596C195.06 29.8796 193.53 29.3396 191.7 29.3396ZM211.053 15.7496H216.678V49.1396H211.053V15.7496ZM225.861 15.7496H231.486V49.1396H225.861V15.7496Z" fill="white"/>
<path d="M99.5204 65.5201H101.86V78.1201H99.5204V65.5201ZM105.988 65.5201H108.328V78.1201H105.988V65.5201ZM115.012 67.5001H110.836V65.5201H121.528V67.5001H117.352V78.1201H115.012V67.5001ZM137.943 78.1201L135.369 74.4301C135.261 74.4421 135.099 74.4481 134.883 74.4481H132.039V78.1201H129.699V65.5201H134.883C135.975 65.5201 136.923 65.7001 137.727 66.0601C138.543 66.4201 139.167 66.9361 139.599 67.6081C140.031 68.2801 140.247 69.0781 140.247 70.0021C140.247 70.9501 140.013 71.7661 139.545 72.4501C139.089 73.1341 138.429 73.6441 137.565 73.9801L140.463 78.1201H137.943ZM137.889 70.0021C137.889 69.1981 137.625 68.5801 137.097 68.1481C136.569 67.7161 135.795 67.5001 134.775 67.5001H132.039V72.5221H134.775C135.795 72.5221 136.569 72.3061 137.097 71.8741C137.625 71.4301 137.889 70.8061 137.889 70.0021ZM149.471 78.3001C148.187 78.3001 147.029 78.0241 145.997 77.4721C144.965 76.9081 144.155 76.1341 143.567 75.1501C142.979 74.1541 142.685 73.0441 142.685 71.8201C142.685 70.5961 142.979 69.4921 143.567 68.5081C144.155 67.5121 144.965 66.7381 145.997 66.1861C147.029 65.6221 148.187 65.3401 149.471 65.3401C150.755 65.3401 151.913 65.6221 152.945 66.1861C153.977 66.7381 154.787 67.5061 155.375 68.4901C155.963 69.4741 156.257 70.5841 156.257 71.8201C156.257 73.0561 155.963 74.1661 155.375 75.1501C154.787 76.1341 153.977 76.9081 152.945 77.4721C151.913 78.0241 150.755 78.3001 149.471 78.3001ZM149.471 76.2481C150.311 76.2481 151.067 76.0621 151.739 75.6901C152.411 75.3061 152.939 74.7781 153.323 74.1061C153.707 73.4221 153.899 72.6601 153.899 71.8201C153.899 70.9801 153.707 70.2241 153.323 69.5521C152.939 68.8681 152.411 68.3401 151.739 67.9681C151.067 67.5841 150.311 67.3921 149.471 67.3921C148.631 67.3921 147.875 67.5841 147.203 67.9681C146.531 68.3401 146.003 68.8681 145.619 69.5521C145.235 70.2241 145.043 70.9801 145.043 71.8201C145.043 72.6601 145.235 73.4221 145.619 74.1061C146.003 74.7781 146.531 75.3061 147.203 75.6901C147.875 76.0621 148.631 76.2481 149.471 76.2481ZM165.344 78.3001C164.06 78.3001 162.902 78.0241 161.87 77.4721C160.838 76.9081 160.028 76.1341 159.44 75.1501C158.852 74.1541 158.558 73.0441 158.558 71.8201C158.558 70.5961 158.852 69.4921 159.44 68.5081C160.028 67.5121 160.838 66.7381 161.87 66.1861C162.902 65.6221 164.06 65.3401 165.344 65.3401C166.628 65.3401 167.786 65.6221 168.818 66.1861C169.85 66.7381 170.66 67.5061 171.248 68.4901C171.836 69.4741 172.13 70.5841 172.13 71.8201C172.13 73.0561 171.836 74.1661 171.248 75.1501C170.66 76.1341 169.85 76.9081 168.818 77.4721C167.786 78.0241 166.628 78.3001 165.344 78.3001ZM165.344 76.2481C166.184 76.2481 166.94 76.0621 167.612 75.6901C168.284 75.3061 168.812 74.7781 169.196 74.1061C169.58 73.4221 169.772 72.6601 169.772 71.8201C169.772 70.9801 169.58 70.2241 169.196 69.5521C168.812 68.8681 168.284 68.3401 167.612 67.9681C166.94 67.5841 166.184 67.3921 165.344 67.3921C164.504 67.3921 163.748 67.5841 163.076 67.9681C162.404 68.3401 161.876 68.8681 161.492 69.5521C161.108 70.2241 160.916 70.9801 160.916 71.8201C160.916 72.6601 161.108 73.4221 161.492 74.1061C161.876 74.7781 162.404 75.3061 163.076 75.6901C163.748 76.0621 164.504 76.2481 165.344 76.2481ZM183.574 78.1201L181 74.4301C180.892 74.4421 180.73 74.4481 180.514 74.4481H177.67V78.1201H175.33V65.5201H180.514C181.606 65.5201 182.554 65.7001 183.358 66.0601C184.174 66.4201 184.798 66.9361 185.23 67.6081C185.662 68.2801 185.878 69.0781 185.878 70.0021C185.878 70.9501 185.644 71.7661 185.176 72.4501C184.72 73.1341 184.06 73.6441 183.196 73.9801L186.094 78.1201H183.574ZM183.52 70.0021C183.52 69.1981 183.256 68.5801 182.728 68.1481C182.2 67.7161 181.426 67.5001 180.406 67.5001H177.67V72.5221H180.406C181.426 72.5221 182.2 72.3061 182.728 71.8741C183.256 71.4301 183.52 70.8061 183.52 70.0021ZM193.554 72.8461L191.556 74.8981V78.1201H189.216V65.5201H191.556V71.9821L197.784 65.5201H200.412L195.12 71.1541L200.736 78.1201H198L193.554 72.8461ZM212.499 76.1581V78.1201H203.049V65.5201H212.247V67.4821H205.389V70.7581H211.473V72.6841H205.389V76.1581H212.499ZM225.278 76.1581V78.1201H215.828V65.5201H225.026V67.4821H218.168V70.7581H224.252V72.6841H218.168V76.1581H225.278Z" fill="white"/>
<path d="M64.9327 38.6244C65.9665 44.7448 65.5116 50.0794 61.3349 54.9177C56.5379 60.4591 49.0529 68.4403 44.1732 73.9403C41.6093 69.226 40.1619 67.1997 36.192 62.4441C45.0416 52.4779 54.2634 41.9741 63.2372 32.0906C64.0229 34.1996 64.5605 36.3913 64.9327 38.6244Z" fill="#138AD6"/>
<path d="M50.707 90.8538C48.5153 82.5004 46.4476 78.82 46.4476 78.82C47.5228 77.8275 53.8085 70.4665 56.0416 67.7786C57.9852 77.4139 55.0905 85.4365 50.707 90.8538Z" fill="#138AD6"/>
<path d="M65.7594 2.27444C67.0827 9.92485 67.2481 18.6091 62.0376 24.9362C55.4623 32.9588 48.3082 40.6092 41.3608 48.3423C39.748 50.1205 38.1352 51.8987 36.5224 53.6769C35.9021 54.3799 32.3871 58.5152 32.3871 58.5152C20.8908 47.3911 7.90578 43.9588 6.25164 43.5453C3.27419 42.8009 1.28922 43.5453 0.999743 43.7934C0.586208 43.3385 2.77795 40.8573 2.98471 40.361C3.60502 38.831 3.64637 37.1768 4.55615 35.6881C6.3757 32.6693 9.89075 31.8009 13.2404 32.1317C17.1276 32.5039 23.372 34.5302 28.6239 33.4137C36.3157 31.8009 41.8984 25.4324 48.0601 19.1053C54.015 12.9437 59.515 6.36844 65.2631 0C65.4699 0.744363 65.6353 1.53008 65.7594 2.27444Z" fill="#138AD6"/>
<path d="M30.7205 125L31.9605 121.28H34.2805L34.5405 120.46H32.2205L33.6605 116.2H35.9205L36.1405 115.38H33.9205L35.1805 111.66H34.2205L33.0005 115.38H30.6605L31.8805 111.66H30.9405L29.7205 115.38H27.4205L27.1805 116.2H29.4405L28.0205 120.46H25.7805L25.5205 121.28H27.7405L26.4805 125H27.4205L28.6805 121.28H31.0405L29.7605 125H30.7205ZM31.2805 120.46H28.9605L30.3805 116.2H32.7205L31.2805 120.46ZM39.5626 113.82C40.0026 113.82 40.3626 113.46 40.3626 113.02C40.3626 112.58 40.0026 112.24 39.5626 112.24C39.1426 112.24 38.7626 112.58 38.7626 113.02C38.7626 113.46 39.1426 113.82 39.5626 113.82ZM40.0826 125V115.34H39.0426V125H40.0826ZM51.6799 125V118.24C51.6799 116.06 50.5999 115.1 48.6399 115.1C47.2399 115.1 45.8599 115.96 45.1599 116.8V115.34H44.1199V125H45.1599V117.7C45.7799 116.82 47.0599 116.04 48.2999 116.04C49.6999 116.04 50.6399 116.6 50.6399 118.46V125H51.6799ZM58.6007 125.24C61.0207 125.24 62.2207 123.96 62.2207 122.4C62.2207 118.68 56.1407 120.16 56.1407 117.74C56.1407 116.74 57.0407 115.98 58.5407 115.98C59.8207 115.98 60.8607 116.5 61.4207 117.26L62.0007 116.52C61.3007 115.74 60.2007 115.1 58.5407 115.1C56.3607 115.1 55.1007 116.3 55.1007 117.78C55.1007 121.26 61.2007 119.76 61.2007 122.4C61.2007 123.52 60.2407 124.36 58.6207 124.36C57.2607 124.36 56.1207 123.72 55.5007 122.94L54.8807 123.7C55.8407 124.78 57.0407 125.24 58.6007 125.24ZM70.1004 125.24C72.6804 125.24 74.4204 123.24 74.4204 120.16C74.4204 117.06 72.6804 115.1 70.1004 115.1C68.6604 115.1 67.4204 115.88 66.7404 116.86V115.34H65.7004V128.68H66.7404V123.44C67.5204 124.54 68.7404 125.24 70.1004 125.24ZM69.9204 124.3C68.5804 124.3 67.3004 123.46 66.7404 122.54V117.76C67.3004 116.84 68.5804 116.04 69.9204 116.04C72.0804 116.04 73.3004 117.82 73.3004 120.16C73.3004 122.5 72.0804 124.3 69.9204 124.3ZM78.368 113.82C78.808 113.82 79.168 113.46 79.168 113.02C79.168 112.58 78.808 112.24 78.368 112.24C77.948 112.24 77.568 112.58 77.568 113.02C77.568 113.46 77.948 113.82 78.368 113.82ZM78.888 125V115.34H77.848V125H78.888ZM83.9654 125V117.96C84.4054 117.12 85.7254 116.24 86.7054 116.24C86.9054 116.24 87.0454 116.24 87.2254 116.28V115.14C85.8854 115.14 84.7854 115.92 83.9654 117V115.34H82.9254V125H83.9654ZM90.593 113.82C91.033 113.82 91.393 113.46 91.393 113.02C91.393 112.58 91.033 112.24 90.593 112.24C90.173 112.24 89.793 112.58 89.793 113.02C89.793 113.46 90.173 113.82 90.593 113.82ZM91.113 125V115.34H90.073V125H91.113ZM102.71 125V118.24C102.71 116.06 101.63 115.1 99.6704 115.1C98.2704 115.1 96.8904 115.96 96.1904 116.8V115.34H95.1504V125H96.1904V117.7C96.8104 116.82 98.0904 116.04 99.3304 116.04C100.73 116.04 101.67 116.6 101.67 118.46V125H102.71ZM110.591 128.92C112.931 128.92 114.931 127.86 114.931 124.92V115.34H113.871V116.9C113.091 115.8 111.891 115.1 110.511 115.1C107.951 115.1 106.211 117.1 106.211 120.16C106.211 123.26 107.951 125.2 110.511 125.2C111.951 125.2 113.191 124.38 113.871 123.38V124.92C113.871 127.1 112.331 127.98 110.591 127.98C109.131 127.98 108.211 127.62 107.371 126.62L106.771 127.46C107.911 128.62 108.951 128.92 110.591 128.92ZM110.691 124.26C108.551 124.26 107.311 122.5 107.311 120.16C107.311 117.82 108.551 116.04 110.691 116.04C112.031 116.04 113.311 116.86 113.871 117.8V122.5C113.311 123.44 112.031 124.26 110.691 124.26ZM119.477 113.82C119.917 113.82 120.277 113.46 120.277 113.02C120.277 112.58 119.917 112.24 119.477 112.24C119.057 112.24 118.677 112.58 118.677 113.02C118.677 113.46 119.057 113.82 119.477 113.82ZM119.997 125V115.34H118.957V125H119.997ZM131.595 125V118.24C131.595 116.06 130.515 115.1 128.555 115.1C127.155 115.1 125.775 115.96 125.075 116.8V115.34H124.035V125H125.075V117.7C125.695 116.82 126.975 116.04 128.215 116.04C129.615 116.04 130.555 116.6 130.555 118.46V125H131.595ZM143.196 125V118.24C143.196 116.06 142.116 115.1 140.156 115.1C138.756 115.1 137.376 115.96 136.676 116.8V115.34H135.636V125H136.676V117.7C137.296 116.82 138.576 116.04 139.816 116.04C141.216 116.04 142.156 116.6 142.156 118.46V125H143.196ZM151.316 125.24C154.176 125.24 155.976 122.98 155.976 120.16C155.976 117.34 154.176 115.1 151.316 115.1C148.496 115.1 146.696 117.34 146.696 120.16C146.696 122.98 148.496 125.24 151.316 125.24ZM151.316 124.3C149.076 124.3 147.796 122.32 147.796 120.16C147.796 118.02 149.076 116.04 151.316 116.04C153.596 116.04 154.856 118.02 154.856 120.16C154.856 122.32 153.596 124.3 151.316 124.3ZM163.242 125L167.322 115.34H166.142L162.662 123.78L159.142 115.34H157.982L162.062 125H163.242ZM177.071 125V118.2C177.071 116.04 175.511 115.1 173.551 115.1C171.951 115.1 170.831 115.64 169.831 116.72L170.411 117.44C171.291 116.44 172.231 116.02 173.451 116.02C174.871 116.02 176.031 116.8 176.031 118.24V120.2C175.191 119.26 174.091 118.82 172.751 118.82C171.071 118.82 169.371 119.92 169.371 122.02C169.371 124.1 171.091 125.24 172.751 125.24C174.091 125.24 175.171 124.8 176.031 123.86V125H177.071ZM173.111 124.42C171.531 124.42 170.471 123.4 170.471 122.04C170.471 120.66 171.531 119.64 173.111 119.64C174.271 119.64 175.351 120.08 176.031 120.98V123.1C175.351 123.98 174.271 124.42 173.111 124.42ZM183.221 125.24C184.021 125.24 184.481 125 184.861 124.64L184.461 123.84C184.241 124.08 183.841 124.3 183.381 124.3C182.701 124.3 182.381 123.76 182.381 122.98V116.26H184.341V115.34H182.381V112.7H181.321V115.34H179.721V116.26H181.321V123.14C181.321 124.46 181.941 125.24 183.221 125.24ZM187.949 113.82C188.389 113.82 188.749 113.46 188.749 113.02C188.749 112.58 188.389 112.24 187.949 112.24C187.529 112.24 187.149 112.58 187.149 113.02C187.149 113.46 187.529 113.82 187.949 113.82ZM188.469 125V115.34H187.429V125H188.469ZM196.586 125.24C199.446 125.24 201.246 122.98 201.246 120.16C201.246 117.34 199.446 115.1 196.586 115.1C193.766 115.1 191.966 117.34 191.966 120.16C191.966 122.98 193.766 125.24 196.586 125.24ZM196.586 124.3C194.346 124.3 193.066 122.32 193.066 120.16C193.066 118.02 194.346 116.04 196.586 116.04C198.866 116.04 200.126 118.02 200.126 120.16C200.126 122.32 198.866 124.3 196.586 124.3ZM212.292 125V118.24C212.292 116.06 211.212 115.1 209.252 115.1C207.852 115.1 206.472 115.96 205.772 116.8V115.34H204.732V125H205.772V117.7C206.392 116.82 207.672 116.04 208.912 116.04C210.312 116.04 211.252 116.6 211.252 118.46V125H212.292Z" fill="white"/>
</svg>
