<svg width="29" height="28" viewBox="0 0 29 28" fill="none" xmlns="http://www.w3.org/2000/svg">
<path d="M19.6161 0.0654297H8.79716C3.99347 0.0654297 0.10376 3.909 0.10376 8.65571V19.3463C0.10376 24.093 3.99347 27.9366 8.79716 27.9366H19.6161C24.4198 27.9366 28.3095 24.093 28.3095 19.3463V8.65571C28.3095 3.909 24.4198 0.0654297 19.6161 0.0654297ZM25.6101 18.3172C25.6101 22.1397 22.4643 25.2482 18.5958 25.2482H9.83867C5.97021 25.2482 2.82443 22.1397 2.82443 18.3172V9.68487C2.82443 5.8623 5.97021 2.75383 9.83867 2.75383H18.5746C22.443 2.75383 25.5888 5.8623 25.5888 9.68487V18.3172H25.6101Z" fill="white" fill-opacity="0.87"/>
<path d="M14.5787 6.69971C10.4765 6.69971 7.1394 9.9762 7.1394 14.0298C7.1394 18.0834 10.4552 21.3599 14.5787 21.3599C18.681 21.3599 21.9968 18.0624 21.9968 14.0298C22.0181 9.9972 18.681 6.69971 14.5787 6.69971ZM14.5787 18.4615C12.1131 18.4615 10.1151 16.4872 10.1151 14.0508C10.1151 11.6144 12.1131 9.64015 14.5787 9.64015C17.0444 9.64015 19.0423 11.6144 19.0423 14.0508C19.0636 16.4872 17.0444 18.4615 14.5787 18.4615Z" fill="white" fill-opacity="0.87"/>
<path d="M23.3999 6.59487C23.3999 7.62402 22.5497 8.46414 21.5082 8.46414C20.4667 8.46414 19.6165 7.62402 19.6165 6.59487C19.6165 5.56571 20.4667 4.72559 21.5082 4.72559C22.5497 4.72559 23.3999 5.56571 23.3999 6.59487Z" fill="white" fill-opacity="0.87"/>
</svg>
