<svg width="831" height="120" viewBox="0 0 831 120" fill="none" xmlns="http://www.w3.org/2000/svg">
<g opacity="0.15">
<path d="M82.3719 67.3777C79.2183 62.841 75.032 59.1184 70.1579 56.5165C64.2283 53.5552 58.0851 51.0427 51.7798 49.0001C46.5939 47.121 42.6476 45.5803 39.9043 44.3776C37.3141 43.2998 34.9732 41.7008 33.0272 39.6799C31.2314 37.7846 30.247 35.2628 30.2838 32.6521C30.1812 31.2074 30.4048 29.758 30.9382 28.4114C31.4715 27.0648 32.3009 25.8553 33.3649 24.8726C35.6116 23.0239 38.4637 22.0733 41.3703 22.2042C43.0518 22.1132 44.7339 22.3699 46.3117 22.9584C47.8894 23.5468 49.3288 24.4543 50.54 25.6241C52.9243 28.1314 54.4169 31.354 54.7873 34.7941H85.3785C85.1033 29.8759 83.8046 25.0694 81.5655 20.6818C79.3265 16.2943 76.1963 12.4224 72.3753 9.31371C63.4187 2.74278 52.4632 -0.524029 41.3705 0.068477C34.0268 -0.066799 26.7342 1.31499 19.949 4.12738C14.0694 6.54553 8.99883 10.5862 5.32918 15.7777C1.72958 21.0792 -0.123049 27.3733 0.0304529 33.7795C-0.25765 40.258 1.50436 46.6624 5.06584 52.0819C8.18791 56.5273 12.34 60.1507 17.1671 62.6424C23.025 65.4909 29.0637 67.9516 35.2442 70.0085C40.3181 71.7747 44.302 73.2781 47.1573 74.5557C49.8491 75.715 52.2976 77.3726 54.3737 79.4413C56.2816 81.5619 57.3151 84.3266 57.2663 87.1787C57.2174 90.0308 56.0898 92.7585 54.1103 94.8124C51.7439 96.8959 48.6516 97.9626 45.5039 97.7813C41.6929 97.93 37.9777 96.5655 35.169 93.9855C32.3511 91.2287 30.674 87.5124 30.4713 83.5755H0.3682C0.518275 88.7954 1.847 93.9139 4.255 98.5477C6.663 103.182 10.0879 107.211 14.2733 110.334C23.7025 117.052 35.1015 120.437 46.6693 119.955C54.345 120.177 61.9657 118.594 68.9174 115.332C74.6285 112.606 79.4403 108.302 82.7849 102.93C85.9291 97.7978 87.57 91.8864 87.5212 85.8679C87.8146 79.3138 86.0108 72.8368 82.3719 67.3777Z" fill="url(#paint0_linear)"/>
<path d="M184.067 12.2077C176.813 5.33015 166.216 1.8728 152.349 1.8728H106.536V118.79H134.797V77.788H152.348C160.393 78.0314 168.38 76.3567 175.649 72.9025C181.686 69.967 186.72 65.3122 190.118 59.5234C193.426 53.5889 195.111 46.8871 195.003 40.0936C195.25 34.9371 194.404 29.7866 192.519 24.9806C190.634 20.1745 187.754 15.8215 184.067 12.2077ZM149.191 55.1261H134.797V24.6848H149.191C160.541 24.6848 166.216 29.821 166.216 40.0935C166.216 50.1278 160.541 55.1387 149.191 55.1262V55.1261Z" fill="url(#paint1_linear)"/>
<path d="M240.478 24.3843H284.938V1.8728H212.179V118.79H284.938V96.128H240.478V24.3843Z" fill="url(#paint2_linear)"/>
<path d="M371.262 2.69922H338.679L295.874 118.79H325.638L332.892 97.4431L340.183 75.9462L354.877 32.9526L369.459 75.9462L376.712 97.4431L384.003 118.79H414.106L371.262 2.69922Z" fill="url(#paint3_linear)"/>
<path d="M530.498 1.8728H496.599L456.575 53.3224V1.8728H428.313V118.79H456.575V66.3632L496.261 118.79H530.498L483.37 59.1098L530.498 1.8728Z" fill="url(#paint4_linear)"/>
<path d="M618.477 24.3843V1.8728H545.719V118.79H618.477V96.128H573.98V70.159H613.517V48.8501H573.98V24.3843H618.477Z" fill="url(#paint5_linear)"/>
<path d="M701.306 72.8276C709.31 71.1729 716.517 66.854 721.751 60.5759C726.51 54.3813 728.991 46.7374 728.779 38.9287C728.899 32.2506 727.238 25.661 723.968 19.8371C720.607 14.101 715.589 9.51573 709.575 6.68344C702.237 3.2798 694.208 1.63279 686.124 1.87308H637.831V74.6315H672.556L697.849 118.79H729.117L701.306 72.8276ZM696.045 51.5562C692.528 54.3155 688.098 55.6444 683.643 55.2767H666.092V25.7H683.643C688.099 25.3493 692.513 26.7668 695.932 29.646C697.321 31.0942 698.398 32.812 699.096 34.6932C699.794 36.5743 700.099 38.5788 699.991 40.5825C700.138 42.5859 699.862 44.5978 699.183 46.4881C698.503 48.3784 697.434 50.1049 696.045 51.5562Z" fill="url(#paint6_linear)"/>
<path d="M825.177 67.3777C822.009 62.8393 817.81 59.117 812.925 56.5165C807.006 53.5611 800.876 51.0488 794.585 49.0001C789.399 47.121 785.415 45.5803 782.672 44.3777C780.098 43.2902 777.771 41.6921 775.832 39.6799C774.935 38.7462 774.231 37.6449 773.76 36.4391C773.29 35.2332 773.061 33.9463 773.088 32.6521C772.988 31.2109 773.209 29.7654 773.736 28.4201C774.262 27.0747 775.081 25.863 776.133 24.8726C778.397 23.0292 781.258 22.0799 784.175 22.2043C785.856 22.1166 787.537 22.3749 789.114 22.9631C790.692 23.5514 792.131 24.457 793.344 25.6241C795.717 28.1349 797.197 31.3578 797.554 34.7941H828.145C827.877 29.8783 826.585 25.0728 824.352 20.6851C822.12 16.2974 818.996 12.4243 815.18 9.31371C806.223 2.74276 795.267 -0.524055 784.175 0.0684843C776.831 -0.0667053 769.538 1.31508 762.753 4.12738C756.862 6.52517 751.786 10.57 748.134 15.7777C744.534 21.0791 742.681 27.3732 742.835 33.7795C742.528 40.2602 744.292 46.6703 747.871 52.0819C750.97 56.534 755.112 60.1598 759.935 62.6424C765.806 65.4903 771.857 67.951 778.049 70.0085C783.122 71.7747 787.068 73.2781 789.962 74.5557C792.648 75.7061 795.085 77.3651 797.14 79.4413C799.048 81.5619 800.082 84.3265 800.033 87.1786C799.984 90.0307 798.857 92.7583 796.877 94.8124C795.715 95.8467 794.359 96.6413 792.889 97.1508C791.419 97.6602 789.862 97.8745 788.309 97.7813C786.422 97.8584 784.537 97.5629 782.764 96.9116C780.991 96.2603 779.363 95.266 777.974 93.9855C775.159 91.2233 773.471 87.5129 773.239 83.5755H743.136C743.294 88.7938 744.626 93.9095 747.033 98.5421C749.441 103.175 752.861 107.205 757.041 110.334C766.484 117.052 777.895 120.437 789.474 119.955C797.138 120.177 804.746 118.594 811.685 115.332C817.399 112.596 822.22 108.295 825.59 102.93C828.722 97.7946 830.35 91.8829 830.288 85.8679C830.593 79.3179 828.802 72.8412 825.177 67.3777Z" fill="url(#paint7_linear)"/>
</g>
<defs>
<linearGradient id="paint0_linear" x1="43.776" y1="0" x2="41.1696" y2="120.406" gradientUnits="userSpaceOnUse">
<stop stop-color="#359D9A"/>
<stop offset="1" stop-color="#030D0F"/>
</linearGradient>
<linearGradient id="paint1_linear" x1="150.79" y1="1.8728" x2="148.343" y2="119.19" gradientUnits="userSpaceOnUse">
<stop stop-color="#359D9A"/>
<stop offset="1" stop-color="#030D0F"/>
</linearGradient>
<linearGradient id="paint2_linear" x1="248.558" y1="1.8728" x2="245.582" y2="119.165" gradientUnits="userSpaceOnUse">
<stop stop-color="#359D9A"/>
<stop offset="1" stop-color="#030D0F"/>
</linearGradient>
<linearGradient id="paint3_linear" x1="354.99" y1="2.69922" x2="353.183" y2="119.209" gradientUnits="userSpaceOnUse">
<stop stop-color="#359D9A"/>
<stop offset="1" stop-color="#030D0F"/>
</linearGradient>
<linearGradient id="paint4_linear" x1="479.405" y1="1.8728" x2="477.285" y2="119.203" gradientUnits="userSpaceOnUse">
<stop stop-color="#359D9A"/>
<stop offset="1" stop-color="#030D0F"/>
</linearGradient>
<linearGradient id="paint5_linear" x1="582.098" y1="1.8728" x2="579.121" y2="119.165" gradientUnits="userSpaceOnUse">
<stop stop-color="#359D9A"/>
<stop offset="1" stop-color="#030D0F"/>
</linearGradient>
<linearGradient id="paint6_linear" x1="683.474" y1="1.8501" x2="681.1" y2="119.193" gradientUnits="userSpaceOnUse">
<stop stop-color="#359D9A"/>
<stop offset="1" stop-color="#030D0F"/>
</linearGradient>
<linearGradient id="paint7_linear" x1="786.561" y1="0" x2="783.953" y2="120.406" gradientUnits="userSpaceOnUse">
<stop stop-color="#359D9A"/>
<stop offset="1" stop-color="#030D0F"/>
</linearGradient>
</defs>
</svg>
