<svg width="147" height="32" viewBox="0 0 147 32" fill="none" xmlns="http://www.w3.org/2000/svg">
<path d="M0 0V6H8.4V31.1H16V6H24.4V0H0Z" fill="white"/>
<path d="M47.7 0V12.1H35.9V0H28.4V31.1H35.9V18.1H47.7V31.1H55.3V0H47.7Z" fill="white"/>
<path d="M68.9 6H80.7V0H61.4V31.1H80.8V25.1H68.9V6Z" fill="white"/>
<path d="M111.7 0.199951L103.5 21.7L95.1 0.199951H85.9V31.1H93.4V11.8L100.1 31.2H106.6L113.3 11.9V31.2H120.8V0.199951H111.7Z" fill="white"/>
<path d="M146.3 6V0H126.9V31.1H146.3V25.1H134.5V18.2H145V12.5H134.5V6H146.3Z" fill="white"/>
</svg>
