<svg width="29" height="28" viewBox="0 0 29 28" fill="none" xmlns="http://www.w3.org/2000/svg">
<path d="M28.8964 22.2132C28.8964 25.3682 26.2987 27.9365 23.1078 27.9365H6.47944C3.27244 27.9365 0.690796 25.3682 0.690796 22.2132V5.78867C0.690796 2.6179 3.28847 0.0654297 6.47944 0.0654297H23.0917C26.2987 0.0654297 28.8804 2.63375 28.8804 5.78867V22.2132H28.8964Z" fill="white" fill-opacity="0.87"/>
<path d="M11.4346 22.0854C18.8427 22.0854 22.8996 16.0134 22.8996 10.7499C22.8996 10.5755 22.8996 10.4011 22.8836 10.2426C23.6693 9.68768 24.3588 8.97425 24.8879 8.18156C24.1664 8.49864 23.3806 8.70474 22.5789 8.81571C23.4127 8.32425 24.0541 7.54741 24.3588 6.61203C23.5731 7.07179 22.7232 7.40472 21.7932 7.57911C21.0556 6.80227 20.0133 6.32666 18.8588 6.32666C16.6299 6.32666 14.834 8.11814 14.834 10.306C14.834 10.6231 14.866 10.9243 14.9302 11.2096C11.5789 11.0353 8.61238 9.44987 6.62404 7.04008C6.27127 7.62667 6.07885 8.30839 6.07885 9.03767C6.07885 10.417 6.78439 11.6377 7.87477 12.3511C7.21734 12.3353 6.59197 12.145 6.04678 11.8596C6.04678 11.8755 6.04678 11.8914 6.04678 11.9072C6.04678 13.8414 7.44183 15.4426 9.28585 15.8073C8.94912 15.9024 8.59635 15.9499 8.22755 15.9499C7.97099 15.9499 7.71442 15.9182 7.4739 15.8707C7.98702 17.4561 9.47828 18.6134 11.2421 18.6451C9.86312 19.7073 8.13133 20.3573 6.2392 20.3573C5.9185 20.3573 5.5978 20.3415 5.2771 20.2939C7.02492 21.4195 9.15758 22.0854 11.4346 22.0854Z" fill="#010C0F"/>
</svg>
