<svg width="1920" height="806" viewBox="0 0 1920 806" fill="none" xmlns="http://www.w3.org/2000/svg">
<rect width="1920" height="806" fill="url(#paint0_radial)"/>
<mask id="mask0" mask-type="alpha" maskUnits="userSpaceOnUse" x="0" y="0" width="1920" height="806">
<rect width="1920" height="806" fill="#00151B"/>
</mask>
<g mask="url(#mask0)">
<path d="M2064.5 377.144C2064.5 520.64 1955.23 641.348 1903.28 766.093C1849.37 895.396 1838.77 1057.25 1740.88 1154.65C1643 1252.05 1480.34 1262.73 1350.4 1316.25C1225.03 1367.94 1103.59 1476.67 959.516 1476.67C815.438 1476.67 693.869 1368.07 568.505 1316.25C438.561 1262.6 275.901 1252.05 178.018 1154.65C80.1341 1057.25 69.4035 895.396 15.6199 766.093C-36.3316 641.348 -145.6 520.51 -145.6 377.144C-145.6 233.778 -36.3316 112.809 15.6199 -11.9359C69.5344 -141.238 80.1341 -303.095 178.018 -400.495C275.901 -497.895 438.561 -508.573 568.505 -562.091C693.869 -613.786 815.307 -722.514 959.516 -722.514C1103.72 -722.514 1225.03 -613.786 1350.4 -562.091C1480.34 -508.442 1643 -497.895 1740.88 -400.495C1838.77 -303.095 1849.5 -141.238 1903.28 -11.9359C1955.36 112.809 2064.5 233.648 2064.5 377.144Z" stroke="#FDFDFD" stroke-opacity="0.01" stroke-width="20" stroke-miterlimit="10"/>
<path d="M1901.71 377.144C1901.71 499.415 1808.54 602.414 1764.18 708.799C1718.24 819.09 1709.21 956.987 1625.73 1040.06C1542.24 1123.14 1403.52 1132.13 1292.82 1177.83C1185.9 1222.1 1082.39 1314.69 959.515 1314.69C836.638 1314.69 733.127 1221.97 626.214 1177.83C515.376 1132.13 376.794 1123.14 293.306 1040.06C209.817 956.987 200.787 818.96 154.855 708.799C110.363 602.414 17.1903 499.415 17.1903 377.144C17.1903 254.873 110.363 151.873 154.724 45.4885C200.656 -64.8029 209.686 -202.7 293.175 -285.776C376.664 -368.853 515.376 -377.838 626.083 -423.543C732.996 -467.816 836.507 -560.528 959.515 -560.528C1082.52 -560.528 1185.9 -467.816 1292.82 -423.673C1403.66 -377.968 1542.24 -368.983 1625.73 -285.906C1709.21 -202.83 1718.24 -64.8028 1764.18 45.3583C1808.67 151.743 1901.71 254.743 1901.71 377.144Z" stroke="#FDFDFD" stroke-opacity="0.01" stroke-width="20" stroke-miterlimit="10"/>
<path d="M1753.97 377.144C1753.97 480.273 1675.45 567.126 1638.03 656.844C1599.29 749.817 1591.7 866.098 1521.17 936.153C1450.76 1006.21 1333.91 1013.76 1240.47 1052.43C1150.31 1089.68 1063.03 1167.8 959.385 1167.8C855.743 1167.8 768.459 1089.68 678.296 1052.43C584.862 1013.89 468.004 1006.34 397.601 936.153C327.198 866.098 319.608 749.817 280.743 656.844C243.317 567.126 164.801 480.273 164.801 377.144C164.801 274.014 243.317 187.161 280.743 97.444C319.478 4.47108 327.067 -111.81 397.601 -181.865C468.135 -251.921 584.862 -259.473 678.296 -298.147C768.459 -335.388 855.743 -413.516 959.385 -413.516C1063.03 -413.516 1150.31 -335.388 1240.47 -298.147C1333.91 -259.603 1450.76 -252.051 1521.17 -181.865C1591.57 -111.68 1599.16 4.47108 1638.03 97.444C1675.45 187.161 1753.97 274.014 1753.97 377.144Z" stroke="#FDFDFD" stroke-opacity="0.01" stroke-width="20" stroke-miterlimit="10"/>
<path d="M1623.89 377.144C1623.89 463.345 1558.2 536.005 1526.93 611.008C1494.47 688.746 1488.19 786.016 1429.3 844.612C1370.42 903.209 1272.66 909.589 1194.54 941.752C1119.16 972.873 1046.14 1038.24 959.515 1038.24C872.886 1038.24 799.866 972.873 724.49 941.752C646.367 909.459 548.614 903.209 489.727 844.612C430.84 786.016 424.428 688.746 392.105 611.008C360.699 536.005 295.007 463.345 295.007 377.144C295.007 290.942 360.699 218.283 391.974 143.279C424.428 65.5415 430.709 -31.7285 489.596 -90.3248C548.483 -148.921 646.236 -155.302 724.359 -187.465C799.735 -218.586 872.755 -283.953 959.385 -283.953C1046.01 -283.953 1119.03 -218.586 1194.41 -187.465C1272.53 -155.171 1370.29 -148.921 1429.17 -90.3248C1488.06 -31.7285 1494.47 65.5415 1526.79 143.279C1558.2 218.152 1623.89 290.812 1623.89 377.144Z" stroke="#FDFDFD" stroke-opacity="0.01" stroke-width="20" stroke-miterlimit="10"/>
<path d="M1491.59 377.144C1491.59 446.157 1438.99 504.363 1413.99 564.522C1388.08 626.764 1382.98 704.762 1335.74 751.639C1288.63 798.516 1210.24 803.595 1147.69 829.507C1087.37 854.378 1028.87 906.724 959.384 906.724C890.028 906.724 831.534 854.378 771.076 829.507C708.525 803.725 630.14 798.647 583.03 751.639C535.92 704.762 530.817 626.764 504.776 564.522C479.781 504.493 427.176 446.287 427.176 377.144C427.176 308.13 479.781 249.925 504.776 189.766C530.686 127.523 535.79 49.5251 583.03 2.64806C630.14 -44.229 708.525 -49.3074 771.076 -75.22C831.403 -100.091 889.898 -152.437 959.384 -152.437C1028.87 -152.437 1087.23 -100.091 1147.69 -75.22C1210.24 -49.4376 1288.63 -44.3592 1335.74 2.64806C1382.85 49.5251 1387.95 127.523 1413.99 189.766C1438.99 249.794 1491.59 308 1491.59 377.144Z" stroke="#FDFDFD" stroke-opacity="0.01" stroke-width="20" stroke-miterlimit="10"/>
<path d="M1380.75 377.144C1380.75 431.834 1339.14 477.93 1319.25 525.458C1298.71 574.809 1294.65 636.4 1257.35 673.511C1220.06 710.622 1158.03 714.659 1108.57 735.102C1060.8 754.765 1014.48 796.303 959.516 796.303C904.554 796.303 858.23 754.895 810.466 735.102C760.87 714.659 698.973 710.622 661.678 673.511C624.382 636.4 620.326 574.679 599.781 525.458C580.021 477.93 538.276 431.834 538.276 377.144C538.276 322.454 579.89 276.358 599.781 228.83C620.326 179.479 624.382 117.888 661.678 80.7765C698.973 43.6655 761 39.6288 810.466 19.1852C858.23 -0.477146 904.554 -42.0154 959.516 -42.0154C1014.48 -42.0154 1060.8 -0.607359 1108.57 19.1852C1158.16 39.6288 1220.06 43.6655 1257.35 80.7765C1294.65 117.888 1298.71 179.609 1319.25 228.83C1339.14 276.358 1380.75 322.454 1380.75 377.144Z" stroke="#FDFDFD" stroke-opacity="0.01" stroke-width="20" stroke-miterlimit="10"/>
<path d="M1286.54 377.144C1286.54 419.593 1254.21 455.402 1238.77 492.253C1222.81 530.536 1219.67 578.455 1190.75 607.232C1161.83 636.009 1113.67 639.265 1075.2 655.021C1038.03 670.386 1002.18 702.549 959.515 702.549C916.855 702.549 880.868 670.386 843.835 655.021C805.362 639.134 757.205 636.009 728.285 607.232C699.365 578.455 696.093 530.536 680.259 492.253C664.687 455.272 632.365 419.593 632.365 377.144C632.365 334.694 664.687 298.885 680.129 262.034C696.093 223.751 699.234 175.833 728.154 147.055C757.074 118.278 805.231 115.023 843.704 99.2668C880.868 83.9015 916.724 51.7386 959.384 51.7386C1002.04 51.7386 1038.03 83.9015 1075.06 99.2668C1113.54 115.153 1161.69 118.278 1190.61 147.055C1219.53 175.833 1222.81 223.751 1238.64 262.034C1254.21 298.885 1286.54 334.694 1286.54 377.144Z" stroke="#FDFDFD" stroke-opacity="0.01" stroke-width="20" stroke-miterlimit="10"/>
<path d="M1205.93 377.144C1205.93 409.176 1181.59 436.001 1169.94 463.866C1157.9 492.644 1155.54 528.713 1133.69 550.459C1111.84 572.204 1075.59 574.548 1046.67 586.528C1018.66 598.117 991.707 622.337 959.515 622.337C927.324 622.337 900.367 598.117 872.363 586.528C843.442 574.548 807.194 572.204 785.34 550.459C763.487 528.713 761.131 492.644 749.092 463.866C737.445 436.001 713.105 409.176 713.105 377.144C713.105 345.111 737.445 318.287 749.092 290.421C761.131 261.644 763.487 225.575 785.34 203.829C807.194 182.083 843.442 179.739 872.363 167.76C900.367 156.17 927.324 131.951 959.515 131.951C991.707 131.951 1018.66 156.17 1046.67 167.76C1075.59 179.739 1111.84 182.083 1133.69 203.829C1155.54 225.575 1157.9 261.644 1169.94 290.421C1181.45 318.157 1205.93 345.111 1205.93 377.144Z" stroke="#FDFDFD" stroke-opacity="0.01" stroke-width="20" stroke-miterlimit="10"/>
</g>
<defs>
<radialGradient id="paint0_radial" cx="0" cy="0" r="1" gradientUnits="userSpaceOnUse" gradientTransform="translate(960 403) rotate(157.228) scale(1041.16 2459.4)">
<stop stop-color="#00151B"/>
<stop offset="1" stop-color="#010C0F"/>
</radialGradient>
</defs>
</svg>
